<mxfile modified="2020-10-23T07:09:02.412Z" host="app.diagrams.net" agent="5.0 (Windows NT 10.0; Win64; x64) AppleWebKit/537.36 (KHTML, like Gecko) Chrome/86.0.4240.75 Safari/537.36" etag="o0LkFtGp8e5IAROhSttI" version="13.8.1" type="github">
  <diagram id="WI9T0HZ2pTsCkuznbFz-" name="Page-1">
    <mxGraphModel dx="1422" dy="833" grid="1" gridSize="10" guides="1" tooltips="1" connect="1" arrows="1" fold="1" page="1" pageScale="1" pageWidth="827" pageHeight="1169" math="0" shadow="0">
      <root>
        <mxCell id="0" />
        <mxCell id="1" parent="0" />
        <mxCell id="yIlqXNv4PA9Dnh1hxRCn-74" value="" style="rounded=0;whiteSpace=wrap;html=1;fillColor=#EAEDED;fontSize=22;fontColor=#FFFFFF;strokeColor=none;labelBackgroundColor=none;" parent="1" vertex="1">
          <mxGeometry x="960" y="190" width="539" height="732.5" as="geometry" />
        </mxCell>
        <mxCell id="yIlqXNv4PA9Dnh1hxRCn-75" value="&lt;span&gt;内部服务/站点:此类站点主要消息接收及推送,同时进行定时任务&lt;/span&gt;" style="text;html=1;align=left;verticalAlign=top;spacingTop=-4;fontSize=14;labelBackgroundColor=none;whiteSpace=wrap;" parent="1" vertex="1">
          <mxGeometry x="1031.5" y="207.5" width="449" height="72" as="geometry" />
        </mxCell>
        <mxCell id="yIlqXNv4PA9Dnh1hxRCn-82" value="1" style="ellipse;whiteSpace=wrap;html=1;aspect=fixed;fillColor=#4D9900;strokeColor=none;labelBackgroundColor=none;" parent="1" vertex="1">
          <mxGeometry x="981.5" y="214" width="23" height="23" as="geometry" />
        </mxCell>
        <mxCell id="yIlqXNv4PA9Dnh1hxRCn-95" value="&lt;span&gt;API GateWay(API网关):&amp;nbsp;&lt;/span&gt;&lt;span id=&quot;docs-internal-guid-dd0a6776-7fff-c518-27d1-3884f40e37ec&quot;&gt;&lt;span style=&quot;font-size: 11pt ; font-family: &amp;#34;arial&amp;#34; ; color: rgb(53 , 55 , 68) ; background-color: transparent ; vertical-align: baseline&quot;&gt;隔离第三方通用服务(非本司服务)与本地应用直接进行交互,作为外部服务的唯一出口 &lt;/span&gt;&lt;/span&gt;&lt;span&gt;&lt;br&gt;&amp;nbsp;&lt;/span&gt;" style="text;html=1;align=left;verticalAlign=top;spacingTop=-4;fontSize=14;labelBackgroundColor=none;whiteSpace=wrap;" parent="1" vertex="1">
          <mxGeometry x="1031.5" y="278" width="449" height="72" as="geometry" />
        </mxCell>
        <mxCell id="yIlqXNv4PA9Dnh1hxRCn-96" value="2" style="ellipse;whiteSpace=wrap;html=1;aspect=fixed;fillColor=#4D9900;strokeColor=none;labelBackgroundColor=none;" parent="1" vertex="1">
          <mxGeometry x="981.5" y="284.5" width="23" height="23" as="geometry" />
        </mxCell>
        <mxCell id="yIlqXNv4PA9Dnh1hxRCn-97" value="&lt;span&gt;数据库:应用层使用数据库含Mysql、Oracle&lt;/span&gt;" style="text;html=1;align=left;verticalAlign=top;spacingTop=-4;fontSize=14;labelBackgroundColor=none;whiteSpace=wrap;" parent="1" vertex="1">
          <mxGeometry x="1031.5" y="350" width="449" height="72" as="geometry" />
        </mxCell>
        <mxCell id="yIlqXNv4PA9Dnh1hxRCn-98" value="3" style="ellipse;whiteSpace=wrap;html=1;aspect=fixed;fillColor=#4D9900;strokeColor=none;labelBackgroundColor=none;" parent="1" vertex="1">
          <mxGeometry x="981.5" y="356.5" width="23" height="23" as="geometry" />
        </mxCell>
        <mxCell id="yIlqXNv4PA9Dnh1hxRCn-99" value="第三方云服务: 比较通用的阿里云服务及微信应用" style="text;html=1;align=left;verticalAlign=top;spacingTop=-4;fontSize=14;labelBackgroundColor=none;whiteSpace=wrap;" parent="1" vertex="1">
          <mxGeometry x="1031.5" y="420" width="449" height="72" as="geometry" />
        </mxCell>
        <mxCell id="yIlqXNv4PA9Dnh1hxRCn-100" value="4" style="ellipse;whiteSpace=wrap;html=1;aspect=fixed;fillColor=#4D9900;strokeColor=none;labelBackgroundColor=none;" parent="1" vertex="1">
          <mxGeometry x="981.5" y="426.5" width="23" height="23" as="geometry" />
        </mxCell>
        <mxCell id="yIlqXNv4PA9Dnh1hxRCn-101" value="&lt;span&gt;配置管理: 对网关层进行动态配置管理.&lt;/span&gt;" style="text;html=1;align=left;verticalAlign=top;spacingTop=-4;fontSize=14;labelBackgroundColor=none;whiteSpace=wrap;" parent="1" vertex="1">
          <mxGeometry x="1031.5" y="490" width="449" height="72" as="geometry" />
        </mxCell>
        <mxCell id="yIlqXNv4PA9Dnh1hxRCn-102" value="5" style="ellipse;whiteSpace=wrap;html=1;aspect=fixed;fillColor=#4D9900;strokeColor=none;labelBackgroundColor=none;" parent="1" vertex="1">
          <mxGeometry x="981.5" y="496.5" width="23" height="23" as="geometry" />
        </mxCell>
        <mxCell id="yIlqXNv4PA9Dnh1hxRCn-103" value="&lt;span&gt;数据库管道: 通过解析binaryLog分析数据库行为,进行数据清洗、搬运.&lt;/span&gt;" style="text;html=1;align=left;verticalAlign=top;spacingTop=-4;fontSize=14;labelBackgroundColor=none;whiteSpace=wrap;" parent="1" vertex="1">
          <mxGeometry x="1031.5" y="560" width="449" height="72" as="geometry" />
        </mxCell>
        <mxCell id="yIlqXNv4PA9Dnh1hxRCn-104" value="6" style="ellipse;whiteSpace=wrap;html=1;aspect=fixed;fillColor=#4D9900;strokeColor=none;labelBackgroundColor=none;" parent="1" vertex="1">
          <mxGeometry x="981.5" y="566.5" width="23" height="23" as="geometry" />
        </mxCell>
        <mxCell id="yIlqXNv4PA9Dnh1hxRCn-105" value="&lt;span&gt;Redis/ElasticSearch: 数据缓存层,存放通用缓存数据,数据由Canal进行搬运.&lt;/span&gt;" style="text;html=1;align=left;verticalAlign=top;spacingTop=-4;fontSize=14;labelBackgroundColor=none;whiteSpace=wrap;" parent="1" vertex="1">
          <mxGeometry x="1031.5" y="630" width="449" height="72" as="geometry" />
        </mxCell>
        <mxCell id="yIlqXNv4PA9Dnh1hxRCn-106" value="7" style="ellipse;whiteSpace=wrap;html=1;aspect=fixed;fillColor=#4D9900;strokeColor=none;labelBackgroundColor=none;" parent="1" vertex="1">
          <mxGeometry x="981.5" y="636.5" width="23" height="23" as="geometry" />
        </mxCell>
        <mxCell id="yIlqXNv4PA9Dnh1hxRCn-107" value="&lt;span&gt;Lorem ipsum dolor sit amet, consectetur adipiscing elit, sed do eiusmod tempor incididunt ut labore et dolore magna aliqua. Ut enim ad minim veniam, quis nostrud exercitation ullamco laboris nisi ut aliquip ex ea commodo consequat.&lt;/span&gt;" style="text;html=1;align=left;verticalAlign=top;spacingTop=-4;fontSize=14;labelBackgroundColor=none;whiteSpace=wrap;" parent="1" vertex="1">
          <mxGeometry x="1031.5" y="700" width="449" height="72" as="geometry" />
        </mxCell>
        <mxCell id="yIlqXNv4PA9Dnh1hxRCn-108" value="8" style="ellipse;whiteSpace=wrap;html=1;aspect=fixed;fillColor=#4D9900;strokeColor=none;labelBackgroundColor=none;" parent="1" vertex="1">
          <mxGeometry x="981.5" y="706.5" width="23" height="23" as="geometry" />
        </mxCell>
        <mxCell id="yIlqXNv4PA9Dnh1hxRCn-109" value="&lt;span&gt;Lorem ipsum dolor sit amet, consectetur adipiscing elit, sed do eiusmod tempor incididunt ut labore et dolore magna aliqua. Ut enim ad minim veniam, quis nostrud exercitation ullamco laboris nisi ut aliquip ex ea commodo consequat.&lt;/span&gt;" style="text;html=1;align=left;verticalAlign=top;spacingTop=-4;fontSize=14;labelBackgroundColor=none;whiteSpace=wrap;" parent="1" vertex="1">
          <mxGeometry x="1031.5" y="770" width="449" height="72" as="geometry" />
        </mxCell>
        <mxCell id="yIlqXNv4PA9Dnh1hxRCn-110" value="9" style="ellipse;whiteSpace=wrap;html=1;aspect=fixed;fillColor=#4D9900;strokeColor=none;labelBackgroundColor=none;" parent="1" vertex="1">
          <mxGeometry x="981.5" y="776.5" width="23" height="23" as="geometry" />
        </mxCell>
        <mxCell id="yIlqXNv4PA9Dnh1hxRCn-111" value="&lt;span&gt;Lorem ipsum dolor sit amet, consectetur adipiscing elit, sed do eiusmod tempor incididunt ut labore et dolore magna aliqua. Ut enim ad minim veniam, quis nostrud exercitation ullamco laboris nisi ut aliquip ex ea commodo consequat.&lt;/span&gt;" style="text;html=1;align=left;verticalAlign=top;spacingTop=-4;fontSize=14;labelBackgroundColor=none;whiteSpace=wrap;" parent="1" vertex="1">
          <mxGeometry x="1031.5" y="840" width="449" height="72" as="geometry" />
        </mxCell>
        <mxCell id="yIlqXNv4PA9Dnh1hxRCn-112" value="10" style="ellipse;whiteSpace=wrap;html=1;aspect=fixed;fillColor=#4D9900;strokeColor=none;labelBackgroundColor=none;" parent="1" vertex="1">
          <mxGeometry x="981.5" y="846.5" width="23" height="23" as="geometry" />
        </mxCell>
        <mxCell id="NH3HatyMuzMGPKfZ8wXx-60" value="" style="edgeStyle=orthogonalEdgeStyle;rounded=0;orthogonalLoop=1;jettySize=auto;html=1;strokeColor=#6c8ebf;fillColor=#dae8fc;" edge="1" parent="1" source="NH3HatyMuzMGPKfZ8wXx-7" target="NH3HatyMuzMGPKfZ8wXx-59">
          <mxGeometry relative="1" as="geometry" />
        </mxCell>
        <mxCell id="NH3HatyMuzMGPKfZ8wXx-7" value="Redis/ElasticSearch" style="shape=image;verticalLabelPosition=bottom;labelBackgroundColor=#ffffff;verticalAlign=top;aspect=fixed;imageAspect=0;image=data:image/svg+xml,PHN2ZyB4bWxuczpjYz0iaHR0cDovL2NyZWF0aXZlY29tbW9ucy5vcmcvbnMjIiB4bWxuczpkYz0iaHR0cDovL3B1cmwub3JnL2RjL2VsZW1lbnRzLzEuMS8iIHhtbG5zOmlua3NjYXBlPSJodHRwOi8vd3d3Lmlua3NjYXBlLm9yZy9uYW1lc3BhY2VzL2lua3NjYXBlIiB4bWxuczpyZGY9Imh0dHA6Ly93d3cudzMub3JnLzE5OTkvMDIvMjItcmRmLXN5bnRheC1ucyMiIHhtbG5zOnNvZGlwb2RpPSJodHRwOi8vc29kaXBvZGkuc291cmNlZm9yZ2UubmV0L0RURC9zb2RpcG9kaS0wLmR0ZCIgeG1sbnM6c3ZnPSJodHRwOi8vd3d3LnczLm9yZy8yMDAwL3N2ZyIgeG1sbnM9Imh0dHA6Ly93d3cudzMub3JnLzIwMDAvc3ZnIiB4bWxuczp4bGluaz0iaHR0cDovL3d3dy53My5vcmcvMTk5OS94bGluayIgdmVyc2lvbj0iMS4xIiBpZD0ic3ZnMTAzNjkzIiBpbmtzY2FwZTp2ZXJzaW9uPSIwLjkyLjMgKDI0MDU1NDYsIDIwMTgtMDMtMTEpIiBzb2RpcG9kaTpkb2NuYW1lPSJyZWRpc19jYWNoZS5zdmciIHg9IjBweCIgeT0iMHB4IiB2aWV3Qm94PSIwIDAgNTguMTEgNTkuMTgiIHN0eWxlPSJlbmFibGUtYmFja2dyb3VuZDpuZXcgMCAwIDU4LjExIDU5LjE4OyIgeG1sOnNwYWNlPSJwcmVzZXJ2ZSI+JiN4YTs8c29kaXBvZGk6bmFtZWR2aWV3IGJvcmRlcmNvbG9yPSIjNjY2NjY2IiBib3JkZXJvcGFjaXR5PSIxIiBmaXQtbWFyZ2luLWJvdHRvbT0iMCIgZml0LW1hcmdpbi1sZWZ0PSIwIiBmaXQtbWFyZ2luLXJpZ2h0PSIwIiBmaXQtbWFyZ2luLXRvcD0iMCIgZ3JpZHRvbGVyYW5jZT0iMTAiIGd1aWRldG9sZXJhbmNlPSIxMCIgaWQ9Im5hbWVkdmlldzEwMzY5NSIgaW5rc2NhcGU6Y3VycmVudC1sYXllcj0ic3ZnMTAzNjkzIiBpbmtzY2FwZTpjeD0iMzguNzQwMTc2IiBpbmtzY2FwZTpjeT0iMzkuNDUzOTExIiBpbmtzY2FwZTpwYWdlb3BhY2l0eT0iMCIgaW5rc2NhcGU6cGFnZXNoYWRvdz0iMiIgaW5rc2NhcGU6d2luZG93LWhlaWdodD0iMTAxNyIgaW5rc2NhcGU6d2luZG93LW1heGltaXplZD0iMSIgaW5rc2NhcGU6d2luZG93LXdpZHRoPSIxOTIwIiBpbmtzY2FwZTp3aW5kb3cteD0iLTgiIGlua3NjYXBlOndpbmRvdy15PSItOCIgaW5rc2NhcGU6em9vbT0iMTAuOTg3ODA1IiBvYmplY3R0b2xlcmFuY2U9IjEwIiBwYWdlY29sb3I9IiNmZmZmZmYiIHNob3dncmlkPSJmYWxzZSI+JiN4YTsJPC9zb2RpcG9kaTpuYW1lZHZpZXc+JiN4YTs8ZyBpZD0iZzEwMzY5MSIgdHJhbnNmb3JtPSJ0cmFuc2xhdGUoMCwwLjAwNCkiPiYjeGE7CTx0aXRsZSBpZD0idGl0bGUxMDM2MjYiPlBhZ2UtMTwvdGl0bGU+JiN4YTsJPGcgaWQ9Imdyb3VwMzc5NC0xIj4mI3hhOwkJPHRpdGxlIGlkPSJ0aXRsZTEwMzYyOCI+UmVkaXMgQ2FjaGUuNjM3PC90aXRsZT4mI3hhOwkJPGcgaWQ9InNoYXBlMzc5NS0yIj4mI3hhOwkJCTx0aXRsZSBpZD0idGl0bGUxMDM2MzAiPlNoZWV0LjM3OTU8L3RpdGxlPiYjeGE7CQkJPHBhdGggaWQ9InBhdGgxMDM2MzIiIGlua3NjYXBlOmNvbm5lY3Rvci1jdXJ2YXR1cmU9IjAiIHN0eWxlPSJmaWxsOiMzOTk5QzY7IiBkPSJNMCw4LjF2NDIuOThjMCw0LjU0LDEwLDguMSwyMi4yNyw4LjFWOC4xSDB6Ii8+JiN4YTsJCTwvZz4mI3hhOwkJPGcgaWQ9InNoYXBlMzc5Ni00IiB0cmFuc2Zvcm09InRyYW5zbGF0ZSgyMi4wMjQ3KSI+JiN4YTsJCQk8dGl0bGUgaWQ9InRpdGxlMTAzNjM1Ij5TaGVldC4zNzk2PC90aXRsZT4mI3hhOwkJCTxwYXRoIGlkPSJwYXRoMTAzNjM3IiBpbmtzY2FwZTpjb25uZWN0b3ItY3VydmF0dXJlPSIwIiBzdHlsZT0iZmlsbDojNTlCNEQ5OyIgZD0iTTAsNTkuMThoMC4zNmMxMi4zOSwwLDIyLjI3LTMuNTYsMjIuMjctOC4xICAgICBWOC4xSDBWNTkuMTh6Ii8+JiN4YTsJCTwvZz4mI3hhOwkJPGcgaWQ9InNoYXBlMzc5Ny02IiB0cmFuc2Zvcm09InRyYW5zbGF0ZSgwLC00Mi45ODQpIj4mI3hhOwkJCTx0aXRsZSBpZD0idGl0bGUxMDM2NDAiPlNoZWV0LjM3OTc8L3RpdGxlPiYjeGE7CQkJPHBhdGggaWQ9InBhdGgxMDM2NDIiIGlua3NjYXBlOmNvbm5lY3Rvci1jdXJ2YXR1cmU9IjAiIHN0eWxlPSJmaWxsOiNGRkZGRkY7IiBkPSJNNDQuNjYsNTEuMDhjMCw0LjQtMTAsOC4xLTIyLjI3LDguMSAgICAgUzAsNTUuNDgsMCw1MS4wOHMxMC04LjEsMjIuMjctOC4xUzQ0LjY2LDQ2LjY4LDQ0LjY2LDUxLjA4eiIvPiYjeGE7CQk8L2c+JiN4YTsJCTxnIGlkPSJzaGFwZTM3OTgtOCIgdHJhbnNmb3JtPSJ0cmFuc2xhdGUoNC41MzQ1LC00Ni4yMDQpIj4mI3hhOwkJCTx0aXRsZSBpZD0idGl0bGUxMDM2NDUiPlNoZWV0LjM3OTg8L3RpdGxlPiYjeGE7CQkJPHBhdGggaWQ9InBhdGgxMDM2NDciIGlua3NjYXBlOmNvbm5lY3Rvci1jdXJ2YXR1cmU9IjAiIHN0eWxlPSJmaWxsOiM3RkJBMDA7IiBkPSJNMzUuNTksNTMuODNjMCwyLjk3LTcuOTYsNS4zNS0xNy43NCw1LjM1ICAgICBDOC4xLDU5LjE4LDAsNTYuOCwwLDUzLjgzYzAtMi45OCw3Ljk2LTUuMzYsMTcuNzQtNS4zNkMyNy40OSw0OC40NywzNS41OSw1MC44NSwzNS41OSw1My44M3oiLz4mI3hhOwkJPC9nPiYjeGE7CQk8ZyBpZD0ic2hhcGUzNzk5LTEwIiB0cmFuc2Zvcm09InRyYW5zbGF0ZSg0LjUzNDUsLTQ4LjMzOCkiPiYjeGE7CQkJPHRpdGxlIGlkPSJ0aXRsZTEwMzY1MCI+U2hlZXQuMzc5OTwvdGl0bGU+JiN4YTsJCQk8cGF0aCBpZD0icGF0aDEwMzY1MiIgaW5rc2NhcGU6Y29ubmVjdG9yLWN1cnZhdHVyZT0iMCIgc3R5bGU9ImZpbGw6I0I4RDQzMjsiIGQ9Ik0zMS43OCw1OS4xOGMyLjM4LTAuOTUsMy43LTIuMDIsMy43LTMuMjIgICAgIGMwLTIuOTctNy45OS01LjM1LTE3Ljc0LTUuMzVDNy45Niw1MC42MSwwLDUyLjk5LDAsNTUuOTZjMCwxLjIsMS40MywyLjM4LDMuNjgsMy4yMmMzLjIyLTEuMzIsOC4zNC0yLjAyLDE0LjA2LTIuMDIgICAgIEMyMy40NSw1Ny4xNiwyOC41OCw1Ny45OCwzMS43OCw1OS4xOHoiLz4mI3hhOwkJPC9nPiYjeGE7CQk8ZyBpZD0ic2hhcGUzODAwLTEyIiB0cmFuc2Zvcm09InRyYW5zbGF0ZSgyOC4zNTAyKSI+JiN4YTsJCQk8dGl0bGUgaWQ9InRpdGxlMTAzNjU1Ij5TaGVldC4zODAwPC90aXRsZT4mI3hhOwkJCTxwYXRoIGlkPSJwYXRoMTAzNjU3IiBpbmtzY2FwZTpjb25uZWN0b3ItY3VydmF0dXJlPSIwIiBzdHlsZT0iZmlsbDojMDA3MkM2OyIgZD0iTTAsMjUuMTN2MjguN2MwLDIuOTcsNi42Nyw1LjM1LDE0Ljg4LDUuMzUgICAgIFYyNS4xM0gweiIvPiYjeGE7CQk8L2c+JiN4YTsJCTxnIGlkPSJzaGFwZTM4MDEtMTQiIHRyYW5zZm9ybT0idHJhbnNsYXRlKDQyLjk4MjUpIj4mI3hhOwkJCTx0aXRsZSBpZD0idGl0bGUxMDM2NjAiPlNoZWV0LjM4MDE8L3RpdGxlPiYjeGE7CQkJPHBhdGggaWQ9InBhdGgxMDM2NjIiIGlua3NjYXBlOmNvbm5lY3Rvci1jdXJ2YXR1cmU9IjAiIHN0eWxlPSJmaWxsOiMwMDcyQzY7IiBkPSJNMCw1OS4xOGgwLjI1YzguMjEsMCwxNC44OC0yLjM4LDE0Ljg4LTUuMzUgICAgIHYtMjguN0gwVjU5LjE4eiIvPiYjeGE7CQk8L2c+JiN4YTsJCTxnIGlkPSJzaGFwZTM4MDItMTYiIHRyYW5zZm9ybT0idHJhbnNsYXRlKDQyLjk4MjUpIj4mI3hhOwkJCTx0aXRsZSBpZD0idGl0bGUxMDM2NjUiPlNoZWV0LjM4MDI8L3RpdGxlPiYjeGE7CQkJPHBhdGggaWQ9InBhdGgxMDM2NjciIGlua3NjYXBlOmNvbm5lY3Rvci1jdXJ2YXR1cmU9IjAiIHN0eWxlPSJmaWxsOiNGRkZGRkY7ZmlsbC1vcGFjaXR5OjAuMzY7IiBkPSJNMCw1OS4xOGgwLjI1ICAgICBjOC4yMSwwLDE0Ljg4LTIuMzgsMTQuODgtNS4zNXYtMjguN0gwVjU5LjE4eiIvPiYjeGE7CQk8L2c+JiN4YTsJCTxnIGlkPSJzaGFwZTM4MDMtMTgiIHRyYW5zZm9ybT0idHJhbnNsYXRlKDI4LjM1MDIsLTI4LjY5NDEpIj4mI3hhOwkJCTx0aXRsZSBpZD0idGl0bGUxMDM2NzAiPlNoZWV0LjM4MDM8L3RpdGxlPiYjeGE7CQkJPHBhdGggaWQ9InBhdGgxMDM2NzIiIGlua3NjYXBlOmNvbm5lY3Rvci1jdXJ2YXR1cmU9IjAiIHN0eWxlPSJmaWxsOiNGRkZGRkY7IiBkPSJNMjkuNzYsNTMuODNjMCwyLjk3LTYuNjcsNS4zNS0xNC44OCw1LjM1ICAgICBTMCw1Ni44LDAsNTMuODNjMC0yLjk4LDYuNjctNS4zNiwxNC44OC01LjM2UzI5Ljc2LDUwLjg1LDI5Ljc2LDUzLjgzeiIvPiYjeGE7CQk8L2c+JiN4YTsJCTxnIGlkPSJzaGFwZTM4MDQtMjAiIHRyYW5zZm9ybT0idHJhbnNsYXRlKDMxLjQzNjcsLTMwLjgyODEpIj4mI3hhOwkJCTx0aXRsZSBpZD0idGl0bGUxMDM2NzUiPlNoZWV0LjM4MDQ8L3RpdGxlPiYjeGE7CQkJPHBhdGggaWQ9InBhdGgxMDM2NzciIGlua3NjYXBlOmNvbm5lY3Rvci1jdXJ2YXR1cmU9IjAiIHN0eWxlPSJmaWxsOiM3RkJBMDA7IiBkPSJNMjMuNTksNTUuNmMwLDEuOS01LjM4LDMuNTgtMTEuOCwzLjU4ICAgICBDNS4zNSw1OS4xOCwwLDU3LjYyLDAsNTUuNmMwLTEuOTEsNS4zNS0zLjU3LDExLjc5LTMuNTdDMTguMjEsNTIuMDMsMjMuNTksNTMuNjksMjMuNTksNTUuNnoiLz4mI3hhOwkJPC9nPiYjeGE7CQk8ZyBpZD0ic2hhcGUzODA1LTIyIiB0cmFuc2Zvcm09InRyYW5zbGF0ZSgzMS40MzY3LC0zMi4yNTcxKSI+JiN4YTsJCQk8dGl0bGUgaWQ9InRpdGxlMTAzNjgwIj5TaGVldC4zODA1PC90aXRsZT4mI3hhOwkJCTxwYXRoIGlkPSJwYXRoMTAzNjgyIiBpbmtzY2FwZTpjb25uZWN0b3ItY3VydmF0dXJlPSIwIiBzdHlsZT0iZmlsbDojQjhENDMyOyIgZD0iTTIxLjA3LDU5LjE4YzEuNTYtMC42MSwyLjUyLTEuMzIsMi41Mi0yLjE1ICAgICBjMC0xLjkxLTUuMzgtMy41Ny0xMS44LTMuNTdDNS4yNCw1My40NiwwLDU1LjAxLDAsNTcuMDNjMCwwLjgzLDAuOTUsMS41NCwyLjUsMi4xNWMyLjE1LTAuODQsNS42LTEuNDMsOS40MS0xLjQzICAgICBDMTUuNDksNTcuNzUsMTguODIsNTguMzQsMjEuMDcsNTkuMTh6Ii8+JiN4YTsJCTwvZz4mI3hhOwkJPGcgaWQ9InNoYXBlMzgwNi0yNCIgdHJhbnNmb3JtPSJ0cmFuc2xhdGUoMzQuNzcwOSwtMi45NzIzKSI+JiN4YTsJCQk8dGl0bGUgaWQ9InRpdGxlMTAzNjg1Ij5TaGVldC4zODA2PC90aXRsZT4mI3hhOwkJCTxwYXRoIGlkPSJwYXRoMTAzNjg3IiBpbmtzY2FwZTpjb25uZWN0b3ItY3VydmF0dXJlPSIwIiBzdHlsZT0iZmlsbDojRkZGRkZGOyIgZD0iTTE3LjM5LDM1bC02LjQzLDEwLjQ4aDUuNkwwLDU5LjE4bDYuNDQtMTAuNTkgICAgIGgtNS42TDE3LjM5LDM1eiIvPiYjeGE7CQk8L2c+JiN4YTsJPC9nPiYjeGE7PC9nPiYjeGE7PC9zdmc+;" vertex="1" parent="1">
          <mxGeometry x="624" y="801.25" width="58" height="59" as="geometry" />
        </mxCell>
        <mxCell id="NH3HatyMuzMGPKfZ8wXx-38" value="" style="edgeStyle=orthogonalEdgeStyle;rounded=0;orthogonalLoop=1;jettySize=auto;html=1;strokeColor=#6c8ebf;fillColor=#dae8fc;" edge="1" parent="1" source="NH3HatyMuzMGPKfZ8wXx-11" target="NH3HatyMuzMGPKfZ8wXx-50">
          <mxGeometry relative="1" as="geometry">
            <mxPoint x="452" y="454" as="sourcePoint" />
            <mxPoint x="451.5999999999999" y="566.9499999999998" as="targetPoint" />
            <Array as="points">
              <mxPoint x="452" y="484" />
              <mxPoint x="452" y="484" />
            </Array>
          </mxGeometry>
        </mxCell>
        <mxCell id="NH3HatyMuzMGPKfZ8wXx-11" value="配置管理" style="shape=image;verticalLabelPosition=bottom;labelBackgroundColor=#ffffff;verticalAlign=top;aspect=fixed;imageAspect=0;image=data:image/svg+xml,PHN2ZyB4bWxuczpjYz0iaHR0cDovL2NyZWF0aXZlY29tbW9ucy5vcmcvbnMjIiB4bWxuczpkYz0iaHR0cDovL3B1cmwub3JnL2RjL2VsZW1lbnRzLzEuMS8iIHhtbG5zOmlua3NjYXBlPSJodHRwOi8vd3d3Lmlua3NjYXBlLm9yZy9uYW1lc3BhY2VzL2lua3NjYXBlIiB4bWxuczpyZGY9Imh0dHA6Ly93d3cudzMub3JnLzE5OTkvMDIvMjItcmRmLXN5bnRheC1ucyMiIHhtbG5zOnNvZGlwb2RpPSJodHRwOi8vc29kaXBvZGkuc291cmNlZm9yZ2UubmV0L0RURC9zb2RpcG9kaS0wLmR0ZCIgeG1sbnM6c3ZnPSJodHRwOi8vd3d3LnczLm9yZy8yMDAwL3N2ZyIgeG1sbnM9Imh0dHA6Ly93d3cudzMub3JnLzIwMDAvc3ZnIiB4bWxuczp4bGluaz0iaHR0cDovL3d3dy53My5vcmcvMTk5OS94bGluayIgdmVyc2lvbj0iMS4xIiBpZD0ic3ZnNjQ4MDAiIGlua3NjYXBlOnZlcnNpb249IjAuOTIuMyAoMjQwNTU0NiwgMjAxOC0wMy0xMSkiIHNvZGlwb2RpOmRvY25hbWU9ImNvbmZpZ19tYW5hZ2VyLnN2ZyIgeD0iMHB4IiB5PSIwcHgiIHZpZXdCb3g9IjAgMCA4NS4wMiA1Mi41IiBzdHlsZT0iZW5hYmxlLWJhY2tncm91bmQ6bmV3IDAgMCA4NS4wMiA1Mi41OyIgeG1sOnNwYWNlPSJwcmVzZXJ2ZSI+JiN4YTs8c29kaXBvZGk6bmFtZWR2aWV3IGJvcmRlcmNvbG9yPSIjNjY2NjY2IiBib3JkZXJvcGFjaXR5PSIxIiBmaXQtbWFyZ2luLWJvdHRvbT0iMCIgZml0LW1hcmdpbi1sZWZ0PSIwIiBmaXQtbWFyZ2luLXJpZ2h0PSIwIiBmaXQtbWFyZ2luLXRvcD0iMCIgZ3JpZHRvbGVyYW5jZT0iMTAiIGd1aWRldG9sZXJhbmNlPSIxMCIgaWQ9Im5hbWVkdmlldzY0ODAyIiBpbmtzY2FwZTpjdXJyZW50LWxheWVyPSJzdmc2NDgwMCIgaW5rc2NhcGU6Y3g9IjU2LjY3ODI0IiBpbmtzY2FwZTpjeT0iMzQuOTk5OTg2IiBpbmtzY2FwZTpwYWdlb3BhY2l0eT0iMCIgaW5rc2NhcGU6cGFnZXNoYWRvdz0iMiIgaW5rc2NhcGU6d2luZG93LWhlaWdodD0iMTAxNyIgaW5rc2NhcGU6d2luZG93LW1heGltaXplZD0iMSIgaW5rc2NhcGU6d2luZG93LXdpZHRoPSIxOTIwIiBpbmtzY2FwZTp3aW5kb3cteD0iLTgiIGlua3NjYXBlOndpbmRvdy15PSItOCIgaW5rc2NhcGU6em9vbT0iMTIuMDQxNjY3IiBvYmplY3R0b2xlcmFuY2U9IjEwIiBwYWdlY29sb3I9IiNmZmZmZmYiIHNob3dncmlkPSJmYWxzZSI+JiN4YTsJPC9zb2RpcG9kaTpuYW1lZHZpZXc+JiN4YTs8ZyBpZD0iZzY0Nzk4IiB0cmFuc2Zvcm09InRyYW5zbGF0ZSgtMC43NTAwMDAzNCwtMC43NTI1KSI+JiN4YTsJPHRpdGxlIGlkPSJ0aXRsZTY0NzQwIj5QYWdlLTE8L3RpdGxlPiYjeGE7CTxnIGlkPSJncm91cDQ4MzUtMSIgdHJhbnNmb3JtPSJ0cmFuc2xhdGUoMC43NTQ4NzIsLTEuNSkiPiYjeGE7CQk8dGl0bGUgaWQ9InRpdGxlNjQ3NDIiPkNvbmZpZyBNYW5hZ2VyPC90aXRsZT4mI3hhOwkJPGcgaWQ9InNoYXBlNDgzNi0yIiB0cmFuc2Zvcm09InRyYW5zbGF0ZSgwLC0xNC4wMTc1KSI+JiN4YTsJCQk8dGl0bGUgaWQ9InRpdGxlNjQ3NDQiPnBhdGg0Nzc0PC90aXRsZT4mI3hhOwkJCTxwYXRoIGlkPSJwYXRoNjQ3NDYiIGlua3NjYXBlOmNvbm5lY3Rvci1jdXJ2YXR1cmU9IjAiIHN0eWxlPSJmaWxsOiNDMkMyQzI7IiBkPSJNMzcuMTUsMzMuNTJsLTIuODQtMC40MSAgICAgYy0wLjItMC42LTAuMi0xLjIxLTAuNC0xLjgybDIuNDMtMS40MmMwLjM5LTAuMTUsMC41Ny0wLjU5LDAuNDItMC45N2MtMC4wMS0wLjAxLTAuMDEtMC4wMy0wLjAyLTAuMDRsLTAuODEtMS42NCAgICAgYzAtMC40MS0wLjQtMC42MS0wLjgxLTAuNjFsLTIuODQsMC44MWMtMC4yMS0wLjYxLTAuNTYtMS4xNi0xLjAxLTEuNjJsMS42Mi0yLjQzYzAuMi0wLjIzLDAuMi0wLjU4LDAtMC44MWwtMS40MS0xLjQyICAgICBjLTAuMjMtMC4yLTAuNTgtMC4yLTAuODEsMGwtMi40NCwxLjYyYy0wLjQxLTAuNC0xLjAxLTAuNi0xLjQyLTEuMDFsMC42MS0yLjg0YzAuMi0wLjIsMC0wLjYxLTAuNDEtMC44MWwtMS42Mi0wLjYxICAgICBjLTAuMzUtMC4xNS0wLjc1LTAuMDctMS4wMSwwLjJsLTEuNDIsMi40M2MtMC42MS0wLjItMS4yMi0wLjItMi4wNC0wLjRsLTAuNDEtMi44NGMtMC4wMi0wLjMzLTAuMjgtMC41OS0wLjYxLTAuNjFsLTIuMDQsMCAgICAgYy0wLjMzLDAuMDItMC41OSwwLjI4LTAuNjEsMC42MWwtMC40LDIuODRjLTAuNjEsMC4yLTEuMjEsMC4yLTEuODMsMC40bC0xLjQyLTIuNDNjLTAuMi0wLjQtMC42LTAuNC0xLjAxLTAuNGwtMS44MywwLjggICAgIGMtMC4yLDAtMC40LDAuNDEtMC40LDAuODFsMC44MSwyLjg0Yy0wLjYxLDAuMjItMS4xNywwLjU2LTEuNjMsMS4wMkw3LjEsMjEuMTRjLTAuMjMtMC4yLTAuNTgtMC4yLTAuODEsMGwtMS40MiwxLjQxICAgICBjLTAuMiwwLjIzLTAuMiwwLjU4LDAsMC44MWwxLjYzLDIuNDNjLTAuNCwwLjQxLTAuNjEsMS4wMi0xLjAxLDEuNDJMMi42NSwyNi42Yy0wLjIxLTAuMi0wLjYxLDAtMC44MSwwLjQxbC0wLjgzLDEuNjMgICAgIGMwLDAuNCwwLDAuODEsMC40MSwxLjAxbDIuNDMsMS40MmMtMC4yLDAuNi0wLjIsMS40MS0wLjQsMi4wMmwtMi44NCwwLjQzQzAuMjgsMzMuNTQsMC4wMiwzMy44LDAsMzQuMTNsMCwyLjAyICAgICBjLTAuMDQsMC4zLDAuMTcsMC41NywwLjQ2LDAuNjFjMC4wNSwwLjAxLDAuMSwwLjAxLDAuMTQsMGwyLjg0LDAuNGMwLjA0LDAuNjMsMC4xNywxLjI1LDAuNCwxLjgzTDEuNDIsNDAuNCAgICAgQzEuMDMsNDAuNTUsMC44NSw0MC45OSwxLDQxLjM3QzEsNDEuMzksMS4wMSw0MS40LDEuMDEsNDEuNDFsMC44MiwxLjg2YzAsMC4yLDAuNCwwLjQsMC44MSwwLjRsMi44Ny0wLjg0ICAgICBjMC4yMSwwLjYxLDAuNTYsMS4xNiwxLjAxLDEuNjJMNC45LDQ2Ljg4Yy0wLjIxLDAuMzEtMC4yMSwwLjcxLDAsMS4wMWwxLjM2LDEuMjNjMC4yLDAuMiwwLjYxLDAuNCwwLjgxLDAuMmwyLjQ0LTEuODIgICAgIGMwLjM5LDAuNDUsMC44OSwwLjgsMS40NSwxLjAybC0wLjYsMi44NGMtMC4yMSwwLjIsMCwwLjYxLDAuNCwwLjgxbDEuNjMsMC44MWMwLjQsMCwwLjgxLDAsMS4wMS0wLjRsMS40Mi0yLjQzICAgICBjMC42NSwwLjI1LDEuMzQsMC4zOSwyLjAzLDAuNGwwLjQxLDIuODRjMC4wMiwwLjMzLDAuMjgsMC41OSwwLjYxLDAuNjFsMi4wMywwYzAuMzMtMC4wMiwwLjU5LTAuMjgsMC42MS0wLjYxbDAuNC0yLjg0ICAgICBjMC42My0wLjA0LDEuMjYtMC4xOCwxLjg1LTAuNDFsMS40MiwyLjQzYzAuMTUsMC4zOSwwLjU5LDAuNTcsMC45NywwLjQyYzAuMDEtMC4wMSwwLjAzLTAuMDEsMC4wNC0wLjAybDEuODMtMC44MSAgICAgYzAuMiwwLDAuNDEtMC40LDAuNDEtMC44MWwtMC44NC0yLjgzYzAuNjEtMC4yMSwxLjE3LTAuNTYsMS42My0xLjAxbDIuNDQsMS44MmMwLjIsMC4yLDAuNjEsMCwwLjgxLTAuMmwxLjQyLTEuMjIgICAgIGMwLjIxLTAuMzEsMC4yMS0wLjcxLDAtMS4wMWwtMS42My0yLjQzYzAuMzgtMC40NCwwLjcyLTAuOTEsMS4wMS0xLjQybDIuODQsMC44MWMwLjM1LTAuMDUsMC42Ni0wLjI3LDAuODItMC41OWwwLjgxLTEuNjIgICAgIGMwLTAuNDEsMC0wLjgxLTAuNC0xLjAxbC0yLjQ0LTEuNDJjMC4yLTAuNjEsMC4yLTEuMjIsMC40LTIuMDNsMi44NS0wLjRjMC4yOSwwLjA1LDAuNTctMC4xNSwwLjYyLTAuNDUgICAgIGMwLjAxLTAuMDcsMC4wMS0wLjEzLDAtMC4ybC0wLjAxLTIuMDNDMzcuNzQsMzMuNzksMzcuNDgsMzMuNTMsMzcuMTUsMzMuNTJMMzcuMTUsMzMuNTJ6IE0zMC40NiwzOC4xNyAgICAgYy0wLjEsMC41MS0wLjYsMC44NC0xLjExLDAuNzNjLTAuMTEtMC4wMi0wLjIyLTAuMDYtMC4zMS0wLjEybC00LjY4LTMuMDFjLTAuNjEtMC4yLTAuNjEtMC44MSwwLTEuMjJsNC42Ny0zLjA0ICAgICBjMC41My0wLjI0LDEuMTUsMCwxLjM5LDAuNTNjMC4wMSwwLjAzLDAuMDIsMC4wNSwwLjAzLDAuMDhjMC4yNCwxLDAuMzcsMi4wMiwwLjQsMy4wNGMtMC4wMSwxLjAzLTAuMTQsMi4wNS0wLjQsMy4wNSAgICAgTDMwLjQ2LDM4LjE3eiBNMjkuMjMsMjkuMDJjMC4yOCwwLjQzLDAuMTUsMS4wMS0wLjI4LDEuMjljLTAuMSwwLjA2LTAuMjEsMC4xMS0wLjMzLDAuMTNsLTUuNDgsMS4yMSAgICAgYy0wLjYsMC4yLTEuMDEtMC4yLTAuODEtMC44MWwxLjIyLTUuNDdjMC4yLTAuODEsMC44MS0xLjAyLDEuNDItMC42MWMwLjg4LDAuNTEsMS42OSwxLjEyLDIuNDMsMS44MiAgICAgQzI4LjEsMjcuMzIsMjguNzEsMjguMTQsMjkuMjMsMjkuMDJ6IE0xNS44NCwyMy4zNmMxLTAuMjQsMi4wMi0wLjM3LDMuMDQtMC40YzEuMDMsMC4wMywyLjA1LDAuMTYsMy4wNSwwLjQgICAgIGMwLjUsMC4xLDAuODQsMC41OCwwLjc0LDEuMDljLTAuMDIsMC4xMi0wLjA3LDAuMjMtMC4xMywwLjMzbC0zLjA1LDQuODdjLTAuNCwwLjYxLTEuMDEsMC42MS0xLjIxLDBsLTMuMDItNC44NiAgICAgYy0wLjI4LTAuNDMtMC4xNS0xLjAxLDAuMjgtMS4yOWMwLjEtMC4wNiwwLjIxLTAuMTEsMC4zMy0wLjEzTDE1Ljg0LDIzLjM2eiBNMjEuOTMsMzUuMTJjMCwxLjY4LTEuMzYsMy4wNC0zLjA1LDMuMDQgICAgIHMtMy4wNS0xLjM2LTMuMDUtMy4wNGMwLjEyLTEuNjgsMS41OC0yLjk1LDMuMjYtMi44M0MyMC42MiwzMi40LDIxLjgyLDMzLjYsMjEuOTMsMzUuMTJ6IE0xMi43OSwyNC41OSAgICAgYzAuNDQtMC4yOCwxLjAyLTAuMTQsMS4yOSwwLjNjMC4wNiwwLjEsMC4xLDAuMiwwLjEyLDAuMzFsMS4yMSw1LjQ3YzAuMiwwLjYxLTAuMiwxLjAxLTEuMDEsMS4wMWwtNS4yNS0xLjQyICAgICBjLTAuODEtMC4yLTEuMDItMC44MS0wLjYxLTEuNDFjMC40My0wLjkzLDEuMDYtMS43NiwxLjgzLTIuNDNjMC43NC0wLjcsMS41Ni0xLjMxLDIuNDQtMS44M0gxMi43OXogTTcuMTEsMzcuOTcgICAgIGMtMC4yNi0xLTAuNC0yLjAyLTAuNDEtMy4wNWMwLjAzLTEuMDIsMC4xNy0yLjA0LDAuNDEtMy4wNGMwLjE0LTAuNDYsMC42My0wLjcyLDEuMDktMC41N2MwLjEyLDAuMDQsMC4yMiwwLjEsMC4zMSwwLjE4ICAgICBsNC44OCwyLjg0YzAuMzksMC4xNCwwLjYsMC41NiwwLjQ2LDAuOTVjLTAuMDgsMC4yMi0wLjI1LDAuMzktMC40NiwwLjQ2bC00Ljg4LDIuODNjLTAuNjEsMC40MS0xLjIxLDAuMjEtMS40Mi0wLjZINy4xMXogICAgICBNOC4zMiw0MS4yMWMtMC4yOS0wLjQtMC4yMS0wLjk1LDAuMTktMS4yNWMwLjEyLTAuMDksMC4yNy0wLjE1LDAuNDItMC4xN2w1LjQ4LTEuNDFjMC42MS0wLjIsMS4wMiwwLjIsMS4wMiwxLjAxbC0xLjQyLDUuNDggICAgIGMtMC4yLDAuNTUtMC44LDAuODMtMS4zNCwwLjYzYy0wLjAzLTAuMDEtMC4wNS0wLjAyLTAuMDgtMC4wM2MtMC44OC0wLjUxLTEuNy0xLjEyLTIuNDQtMS44MkM5LjE0LDQyLjQ0LDguMzIsNDEuMjIsOC4zMiw0MS4yMSAgICAgTDguMzIsNDEuMjF6IE0yMS43Myw0Ni42OWMtMSwwLjI2LTIuMDIsMC4zOS0zLjA1LDAuNGMtMS4wMi0wLjAzLTIuMDQtMC4xNi0zLjA0LTAuNGMtMC41NS0wLjE5LTAuODMtMC43OS0wLjY0LTEuMzQgICAgIGMwLjAxLTAuMDMsMC4wMi0wLjA1LDAuMDMtMC4wOGwzLjA0LTQuNjZjMC40MS0wLjYxLDEuMDItMC42MSwxLjIyLDBsMy4wNCw0LjY2QzIyLjc0LDQ1Ljg4LDIyLjU0LDQ2LjQ5LDIxLjczLDQ2LjY5eiAgICAgIE0yNC43Nyw0NS40N2MtMC42MSwwLjQxLTEuMjEsMC4yMS0xLjQyLTAuNmwtMS4yMS01LjQ4Yy0wLjItMC42MSwwLjItMS4wMSwxLjAxLTAuODFsNS40OCwxLjIyYzAuNTUsMC4xOSwwLjgzLDAuNzksMC42NCwxLjM0ICAgICBjLTAuMDEsMC4wMi0wLjAyLDAuMDUtMC4wMywwLjA3Yy0wLjUyLDAuODgtMS4xMywxLjY5LTEuODMsMi40M0MyNi41OCw0NC4zMiwyNS43LDQ0LjkzLDI0Ljc3LDQ1LjQ3eiIvPiYjeGE7CQk8L2c+JiN4YTsJCTxnIGlkPSJzaGFwZTQ4MzctNCIgdHJhbnNmb3JtPSJ0cmFuc2xhdGUoMzcuMDEyNSwtMzApIj4mI3hhOwkJCTx0aXRsZSBpZD0idGl0bGU2NDc0OSI+cmVjdDQ3NzY8L3RpdGxlPiYjeGE7CQkJJiN4YTsJCQkJPHBhdGggaWQ9InBhdGg2NDc1MSIgaW5rc2NhcGU6Y29ubmVjdG9yLWN1cnZhdHVyZT0iMCIgc3R5bGU9ImZpbGw6bm9uZTtzdHJva2U6IzU1NkE4QTtzdHJva2Utd2lkdGg6MS41O3N0cm9rZS1taXRlcmxpbWl0OjM7IiBkPSIgICAgIE0wLDUyLjVDMCw1My4zMywwLjY3LDU0LDEuNSw1NGgyNGMwLjgzLDAsMS41LTAuNjcsMS41LTEuNVYzOWMwLTAuODMtMC42Ny0xLjUtMS41LTEuNWgtMjRDMC42NywzNy41LDAsMzguMTcsMCwzOVY1Mi41eiIvPiYjeGE7CQk8L2c+JiN4YTsJCTxnIGlkPSJzaGFwZTQ4MzgtNiIgdHJhbnNmb3JtPSJ0cmFuc2xhdGUoMTYuNzYyNSkiPiYjeGE7CQkJPHRpdGxlIGlkPSJ0aXRsZTY0NzU0Ij5wYXRoNDc3ODwvdGl0bGU+JiN4YTsJCQk8cGF0aCBpZD0icGF0aDY0NzU2IiBpbmtzY2FwZTpjb25uZWN0b3ItY3VydmF0dXJlPSIwIiBzdHlsZT0iZmlsbDojRkZGRkZGOyIgZD0iTTY3LjUsMjIuNjF2MjkuNTVjMCwwLjY0LTAuMzQsMS4yNC0wLjg5LDEuNTcgICAgIEM2Ni4zMiw1My45MSw2Niw1NCw2NS42Niw1NEgxLjg0QzAuODMsNTQsMCw1My4xOCwwLDUyLjE3YzAsMCwwLDAsMC0wLjAxVjIyLjYxYzAuMDItMy4zNywyLjc2LTYuMSw2LjEzLTYuMTFoNTUuMjMgICAgIEM2NC43NCwxNi41LDY3LjQ4LDE5LjIzLDY3LjUsMjIuNjF6Ii8+JiN4YTsJCTwvZz4mI3hhOwkJPGcgaWQ9Imdyb3VwNDgzOS04IiB0cmFuc2Zvcm09InRyYW5zbGF0ZSgxNi4wMTI1KSI+JiN4YTsJCQk8dGl0bGUgaWQ9InRpdGxlNjQ3NTkiPmc0NzkwPC90aXRsZT4mI3hhOwkJCTxnIGlkPSJzaGFwZTQ4NDAtOSIgdHJhbnNmb3JtPSJ0cmFuc2xhdGUoMCwtMTgpIj4mI3hhOwkJCQk8dGl0bGUgaWQ9InRpdGxlNjQ3NjEiPnJlY3Q0NzgwPC90aXRsZT4mI3hhOwkJCQk8cmVjdCBpZD0icmVjdDY0NzYzIiB4PSIwIiB5PSI0OS41IiBzdHlsZT0iZmlsbDojMkJDN0Y0OyIgd2lkdGg9IjY4LjI1IiBoZWlnaHQ9IjQuNSIvPiYjeGE7CQkJPC9nPiYjeGE7CQkJPGcgaWQ9InNoYXBlNDg0MS0xMSIgdHJhbnNmb3JtPSJ0cmFuc2xhdGUoMC43NSkiPiYjeGE7CQkJCTx0aXRsZSBpZD0idGl0bGU2NDc2NiI+cGF0aDQ3ODI8L3RpdGxlPiYjeGE7CQkJCTxwYXRoIGlkPSJwYXRoNjQ3NjgiIGlua3NjYXBlOmNvbm5lY3Rvci1jdXJ2YXR1cmU9IjAiIHN0eWxlPSJmaWxsOiNFNUU1RTU7IiBkPSJNNjcuNSw0NC4yNXY3LjkxYzAsMC42NC0wLjM0LDEuMjQtMC44OSwxLjU3ICAgICAgQzY2LjMyLDUzLjkxLDY2LDU0LDY1LjY2LDU0SDEuODRDMC44Myw1NCwwLDUzLjE4LDAsNTIuMTdjMCwwLDAsMCwwLTAuMDF2LTcuOTFINjcuNXoiLz4mI3hhOwkJCTwvZz4mI3hhOwkJCTxnIGlkPSJzaGFwZTQ4NDItMTMiIHRyYW5zZm9ybT0idHJhbnNsYXRlKDAuNzUpIj4mI3hhOwkJCQk8dGl0bGUgaWQ9InRpdGxlNjQ3NzEiPnBhdGg0Nzg0PC90aXRsZT4mI3hhOwkJCQkmI3hhOwkJCQkJPHBhdGggaWQ9InBhdGg2NDc3MyIgaW5rc2NhcGU6Y29ubmVjdG9yLWN1cnZhdHVyZT0iMCIgc3R5bGU9ImZpbGw6bm9uZTtzdHJva2U6IzU1NkE4QTtzdHJva2Utd2lkdGg6MS41O3N0cm9rZS1taXRlcmxpbWl0OjM7IiBkPSIgICAgICBNNjEuMzYsMTYuNUg2LjEzQzIuNzYsMTYuNTEsMC4wMiwxOS4yNCwwLDIyLjYxdjI5LjU1QzAsNTMuMTgsMC44Miw1NCwxLjg0LDU0aDYzLjgxYzAuMzQsMCwwLjY3LTAuMDksMC45Ni0wLjI3ICAgICAgYzAuNTUtMC4zMywwLjg5LTAuOTMsMC44OS0xLjU3VjIyLjYxQzY3LjQ4LDE5LjIzLDY0Ljc0LDE2LjUsNjEuMzYsMTYuNXoiLz4mI3hhOwkJCTwvZz4mI3hhOwkJCTxnIGlkPSJzaGFwZTQ4NDMtMTUiIHRyYW5zZm9ybT0idHJhbnNsYXRlKDE3LjI1LC0xMy41KSI+JiN4YTsJCQkJPHRpdGxlIGlkPSJ0aXRsZTY0Nzc2Ij5yZWN0NDc4NjwvdGl0bGU+JiN4YTsJCQkJJiN4YTsJCQkJCTxwYXRoIGlkPSJwYXRoNjQ3NzgiIGlua3NjYXBlOmNvbm5lY3Rvci1jdXJ2YXR1cmU9IjAiIHN0eWxlPSJmaWxsOiNGRkZGRkY7c3Ryb2tlOiM1NTZBOEE7c3Ryb2tlLXdpZHRoOjEuNTtzdHJva2UtbWl0ZXJsaW1pdDozOyIgZD0iICAgICAgTTAsNTIuNUMwLDUzLjMzLDAuNjcsNTQsMS41LDU0SDZjMC44MywwLDEuNS0wLjY3LDEuNS0xLjVWNDEuMjVjMC0wLjgzLTAuNjctMS41LTEuNS0xLjVIMS41Yy0wLjgzLDAtMS41LDAuNjctMS41LDEuNVY1Mi41eiIvPiYjeGE7CQkJPC9nPiYjeGE7CQkJPGcgaWQ9InNoYXBlNDg0NC0xNyIgdHJhbnNmb3JtPSJ0cmFuc2xhdGUoNDQuMjUsLTEzLjUpIj4mI3hhOwkJCQk8dGl0bGUgaWQ9InRpdGxlNjQ3ODEiPnJlY3Q0Nzg4PC90aXRsZT4mI3hhOwkJCQkmI3hhOwkJCQkJPHBhdGggaWQ9InBhdGg2NDc4MyIgaW5rc2NhcGU6Y29ubmVjdG9yLWN1cnZhdHVyZT0iMCIgc3R5bGU9ImZpbGw6I0ZGRkZGRjtzdHJva2U6IzU1NkE4QTtzdHJva2Utd2lkdGg6MS41O3N0cm9rZS1taXRlcmxpbWl0OjM7IiBkPSIgICAgICBNMCw1Mi41QzAsNTMuMzMsMC42Nyw1NCwxLjUsNTRINmMwLjgzLDAsMS41LTAuNjcsMS41LTEuNVY0MS4yNWMwLTAuODMtMC42Ny0xLjUtMS41LTEuNUgxLjVjLTAuODMsMC0xLjUsMC42Ny0xLjUsMS41VjUyLjV6Ii8+JiN4YTsJCQk8L2c+JiN4YTsJCTwvZz4mI3hhOwkJPGcgaWQ9InNoYXBlNDg0NS0xOSIgdHJhbnNmb3JtPSJ0cmFuc2xhdGUoMzYuMjYyNSwtMTUuNzUpIj4mI3hhOwkJCTx0aXRsZSBpZD0idGl0bGU2NDc4NyI+cmVjdDQ3OTI8L3RpdGxlPiYjeGE7CQkJPHJlY3QgaWQ9InJlY3Q2NDc4OSIgeD0iMCIgeT0iNDQuMjUiIHN0eWxlPSJmaWxsOiM1NTZBOEE7IiB3aWR0aD0iMS41IiBoZWlnaHQ9IjkuNzUiLz4mI3hhOwkJPC9nPiYjeGE7CQk8ZyBpZD0ic2hhcGU0ODQ2LTIxIiB0cmFuc2Zvcm09InRyYW5zbGF0ZSg2My4yNjI1LC0xNS43NSkiPiYjeGE7CQkJPHRpdGxlIGlkPSJ0aXRsZTY0NzkyIj5yZWN0NDc5NDwvdGl0bGU+JiN4YTsJCQk8cmVjdCBpZD0icmVjdDY0Nzk0IiB4PSIwIiB5PSI0NC4yNSIgc3R5bGU9ImZpbGw6IzU1NkE4QTsiIHdpZHRoPSIxLjUiIGhlaWdodD0iOS43NSIvPiYjeGE7CQk8L2c+JiN4YTsJPC9nPiYjeGE7PC9nPiYjeGE7PC9zdmc+;" vertex="1" parent="1">
          <mxGeometry x="409.04" y="380.50000000000045" width="85" height="53" as="geometry" />
        </mxCell>
        <mxCell id="NH3HatyMuzMGPKfZ8wXx-58" value="" style="edgeStyle=orthogonalEdgeStyle;rounded=0;orthogonalLoop=1;jettySize=auto;html=1;strokeColor=#6c8ebf;fillColor=#dae8fc;" edge="1" parent="1" source="NH3HatyMuzMGPKfZ8wXx-12" target="NH3HatyMuzMGPKfZ8wXx-7">
          <mxGeometry relative="1" as="geometry" />
        </mxCell>
        <mxCell id="NH3HatyMuzMGPKfZ8wXx-12" value="日志" style="shape=image;verticalLabelPosition=bottom;labelBackgroundColor=#ffffff;verticalAlign=top;aspect=fixed;imageAspect=0;image=data:image/svg+xml,PHN2ZyB4bWxuczpjYz0iaHR0cDovL2NyZWF0aXZlY29tbW9ucy5vcmcvbnMjIiB4bWxuczpkYz0iaHR0cDovL3B1cmwub3JnL2RjL2VsZW1lbnRzLzEuMS8iIHhtbG5zOmlua3NjYXBlPSJodHRwOi8vd3d3Lmlua3NjYXBlLm9yZy9uYW1lc3BhY2VzL2lua3NjYXBlIiB4bWxuczpyZGY9Imh0dHA6Ly93d3cudzMub3JnLzE5OTkvMDIvMjItcmRmLXN5bnRheC1ucyMiIHhtbG5zOnNvZGlwb2RpPSJodHRwOi8vc29kaXBvZGkuc291cmNlZm9yZ2UubmV0L0RURC9zb2RpcG9kaS0wLmR0ZCIgeG1sbnM6c3ZnPSJodHRwOi8vd3d3LnczLm9yZy8yMDAwL3N2ZyIgeG1sbnM9Imh0dHA6Ly93d3cudzMub3JnLzIwMDAvc3ZnIiB4bWxuczp4bGluaz0iaHR0cDovL3d3dy53My5vcmcvMTk5OS94bGluayIgdmVyc2lvbj0iMS4xIiBpZD0ic3ZnODg0MTciIGlua3NjYXBlOnZlcnNpb249IjAuOTIuMyAoMjQwNTU0NiwgMjAxOC0wMy0xMSkiIHNvZGlwb2RpOmRvY25hbWU9ImxvZy5zdmciIHg9IjBweCIgeT0iMHB4IiB2aWV3Qm94PSIwIDAgNDAuMDggNDcuMDciIHN0eWxlPSJlbmFibGUtYmFja2dyb3VuZDpuZXcgMCAwIDQwLjA4IDQ3LjA3OyIgeG1sOnNwYWNlPSJwcmVzZXJ2ZSI+JiN4YTs8c29kaXBvZGk6bmFtZWR2aWV3IGJvcmRlcmNvbG9yPSIjNjY2NjY2IiBib3JkZXJvcGFjaXR5PSIxIiBmaXQtbWFyZ2luLWJvdHRvbT0iMCIgZml0LW1hcmdpbi1sZWZ0PSIwIiBmaXQtbWFyZ2luLXJpZ2h0PSIwIiBmaXQtbWFyZ2luLXRvcD0iMCIgZ3JpZHRvbGVyYW5jZT0iMTAiIGd1aWRldG9sZXJhbmNlPSIxMCIgaWQ9Im5hbWVkdmlldzg4NDE5IiBpbmtzY2FwZTpjdXJyZW50LWxheWVyPSJzdmc4ODQxNyIgaW5rc2NhcGU6Y3g9IjI2LjcxOTU4NCIgaW5rc2NhcGU6Y3k9IjMxLjM4MjU4NSIgaW5rc2NhcGU6cGFnZW9wYWNpdHk9IjAiIGlua3NjYXBlOnBhZ2VzaGFkb3c9IjIiIGlua3NjYXBlOndpbmRvdy1oZWlnaHQ9IjEwMTciIGlua3NjYXBlOndpbmRvdy1tYXhpbWl6ZWQ9IjEiIGlua3NjYXBlOndpbmRvdy13aWR0aD0iMTkyMCIgaW5rc2NhcGU6d2luZG93LXg9Ii04IiBpbmtzY2FwZTp3aW5kb3cteT0iLTgiIGlua3NjYXBlOnpvb209IjEzLjM4OTM4OSIgb2JqZWN0dG9sZXJhbmNlPSIxMCIgcGFnZWNvbG9yPSIjZmZmZmZmIiBzaG93Z3JpZD0iZmFsc2UiPiYjeGE7CTwvc29kaXBvZGk6bmFtZWR2aWV3PiYjeGE7PGcgaWQ9Imc4ODQxNSIgdHJhbnNmb3JtPSJ0cmFuc2xhdGUoLTAuNzUwMDI0MiwtMC43NSkiPiYjeGE7CTx0aXRsZSBpZD0idGl0bGU4ODMyNSI+UGFnZS0xPC90aXRsZT4mI3hhOwk8ZyBpZD0iZ3JvdXA1MTYyLTEiIHRyYW5zZm9ybT0idHJhbnNsYXRlKDAuNzUsLTEuNSkiPiYjeGE7CQk8dGl0bGUgaWQ9InRpdGxlODgzMjciPkxvZzwvdGl0bGU+JiN4YTsJCTxnIGlkPSJzaGFwZTUxNjMtMiIgdHJhbnNmb3JtPSJ0cmFuc2xhdGUoMi44Nzc3NikiPiYjeGE7CQkJPHRpdGxlIGlkPSJ0aXRsZTg4MzI5Ij5yZWN0NTk5OTwvdGl0bGU+JiN4YTsJCQk8cGF0aCBpZD0icGF0aDg4MzMxIiBpbmtzY2FwZTpjb25uZWN0b3ItY3VydmF0dXJlPSIwIiBzdHlsZT0iZmlsbDojRkZGRkZGOyIgZD0iTTAsNDcuNjFjMCwwLjUzLDAuNDMsMC45NiwwLjk2LDAuOTZsMzQuNTMtMC4wMSAgICAgYzAuNTMsMCwwLjk2LTAuNDMsMC45Ni0wLjk2bDAtNDMuNjRjMC0wLjUzLTAuNDMtMC45Ni0wLjk2LTAuOTZMMC45NiwzQzAuNDMsMywwLDMuNDMsMCwzLjk2TDAsNDcuNjF6Ii8+JiN4YTsJCTwvZz4mI3hhOwkJPGcgaWQ9InNoYXBlNTE2NC00IiB0cmFuc2Zvcm09InRyYW5zbGF0ZSgyLjg3Nzc2LC0wLjQ3OTYyNykiPiYjeGE7CQkJPHRpdGxlIGlkPSJ0aXRsZTg4MzM0Ij5yZWN0NjAwMTwvdGl0bGU+JiN4YTsJCQk8cmVjdCBpZD0icmVjdDg4MzM2IiB4PSIwIiB5PSIzLjk2IiBzdHlsZT0iZmlsbDojRTVFNUU1OyIgd2lkdGg9IjYuMjQiIGhlaWdodD0iNDQuNjEiLz4mI3hhOwkJPC9nPiYjeGE7CQk8ZyBpZD0iZ3JvdXA1MTY1LTYiIHRyYW5zZm9ybT0idHJhbnNsYXRlKDAsLTM3Ljg5MDUpIj4mI3hhOwkJCTx0aXRsZSBpZD0idGl0bGU4ODMzOSI+ZzYwMDk8L3RpdGxlPiYjeGE7CQkJPGcgaWQ9InNoYXBlNTE2Ni03Ij4mI3hhOwkJCQk8dGl0bGUgaWQ9InRpdGxlODgzNDEiPnJlY3Q2MDA1PC90aXRsZT4mI3hhOwkJCQk8cmVjdCBpZD0icmVjdDg4MzQzIiB4PSIwIiB5PSI0Ni42NSIgc3R5bGU9ImZpbGw6IzQxNDA0MjsiIHdpZHRoPSI0LjgiIGhlaWdodD0iMS45MiIvPiYjeGE7CQkJPC9nPiYjeGE7CQkJPGcgaWQ9InNoYXBlNTE2Ny05IiB0cmFuc2Zvcm09InRyYW5zbGF0ZSgyLjM5ODE0KSI+JiN4YTsJCQkJPHRpdGxlIGlkPSJ0aXRsZTg4MzQ2Ij5yZWN0NjAwNzwvdGl0bGU+JiN4YTsJCQkJPHJlY3QgaWQ9InJlY3Q4ODM0OCIgeD0iMCIgeT0iNDYuNjUiIHN0eWxlPSJmaWxsOiMyQkM3RjQ7IiB3aWR0aD0iMi40IiBoZWlnaHQ9IjEuOTIiLz4mI3hhOwkJCTwvZz4mI3hhOwkJPC9nPiYjeGE7CQk8ZyBpZD0iZ3JvdXA1MTY4LTExIiB0cmFuc2Zvcm09InRyYW5zbGF0ZSgwLC0zMC4yMTY1KSI+JiN4YTsJCQk8dGl0bGUgaWQ9InRpdGxlODgzNTIiPmc2MDE1PC90aXRsZT4mI3hhOwkJCTxnIGlkPSJzaGFwZTUxNjktMTIiPiYjeGE7CQkJCTx0aXRsZSBpZD0idGl0bGU4ODM1NCI+cmVjdDYwMTE8L3RpdGxlPiYjeGE7CQkJCTxyZWN0IGlkPSJyZWN0ODgzNTYiIHg9IjAiIHk9IjQ2LjY1IiBzdHlsZT0iZmlsbDojNDE0MDQyOyIgd2lkdGg9IjQuOCIgaGVpZ2h0PSIxLjkyIi8+JiN4YTsJCQk8L2c+JiN4YTsJCQk8ZyBpZD0ic2hhcGU1MTcwLTE0IiB0cmFuc2Zvcm09InRyYW5zbGF0ZSgyLjM5ODE0KSI+JiN4YTsJCQkJPHRpdGxlIGlkPSJ0aXRsZTg4MzU5Ij5yZWN0NjAxMzwvdGl0bGU+JiN4YTsJCQkJPHJlY3QgaWQ9InJlY3Q4ODM2MSIgeD0iMCIgeT0iNDYuNjUiIHN0eWxlPSJmaWxsOiMyQkM3RjQ7IiB3aWR0aD0iMi40IiBoZWlnaHQ9IjEuOTIiLz4mI3hhOwkJCTwvZz4mI3hhOwkJPC9nPiYjeGE7CQk8ZyBpZD0iZ3JvdXA1MTcxLTE2IiB0cmFuc2Zvcm09InRyYW5zbGF0ZSgwLC0yMi41NDI1KSI+JiN4YTsJCQk8dGl0bGUgaWQ9InRpdGxlODgzNjUiPmc2MDIxPC90aXRsZT4mI3hhOwkJCTxnIGlkPSJzaGFwZTUxNzItMTciPiYjeGE7CQkJCTx0aXRsZSBpZD0idGl0bGU4ODM2NyI+cmVjdDYwMTc8L3RpdGxlPiYjeGE7CQkJCTxyZWN0IGlkPSJyZWN0ODgzNjkiIHg9IjAiIHk9IjQ2LjY1IiBzdHlsZT0iZmlsbDojNDE0MDQyOyIgd2lkdGg9IjQuOCIgaGVpZ2h0PSIxLjkyIi8+JiN4YTsJCQk8L2c+JiN4YTsJCQk8ZyBpZD0ic2hhcGU1MTczLTE5IiB0cmFuc2Zvcm09InRyYW5zbGF0ZSgyLjM5ODE0KSI+JiN4YTsJCQkJPHRpdGxlIGlkPSJ0aXRsZTg4MzcyIj5yZWN0NjAxOTwvdGl0bGU+JiN4YTsJCQkJPHJlY3QgaWQ9InJlY3Q4ODM3NCIgeD0iMCIgeT0iNDYuNjUiIHN0eWxlPSJmaWxsOiMyQkM3RjQ7IiB3aWR0aD0iMi40IiBoZWlnaHQ9IjEuOTIiLz4mI3hhOwkJCTwvZz4mI3hhOwkJPC9nPiYjeGE7CQk8ZyBpZD0iZ3JvdXA1MTc0LTIxIiB0cmFuc2Zvcm09InRyYW5zbGF0ZSgwLC0xNC44Njg0KSI+JiN4YTsJCQk8dGl0bGUgaWQ9InRpdGxlODgzNzgiPmc2MDI3PC90aXRsZT4mI3hhOwkJCTxnIGlkPSJzaGFwZTUxNzUtMjIiPiYjeGE7CQkJCTx0aXRsZSBpZD0idGl0bGU4ODM4MCI+cmVjdDYwMjM8L3RpdGxlPiYjeGE7CQkJCTxyZWN0IGlkPSJyZWN0ODgzODIiIHg9IjAiIHk9IjQ2LjY1IiBzdHlsZT0iZmlsbDojNDE0MDQyOyIgd2lkdGg9IjQuOCIgaGVpZ2h0PSIxLjkyIi8+JiN4YTsJCQk8L2c+JiN4YTsJCQk8ZyBpZD0ic2hhcGU1MTc2LTI0IiB0cmFuc2Zvcm09InRyYW5zbGF0ZSgyLjM5ODE0KSI+JiN4YTsJCQkJPHRpdGxlIGlkPSJ0aXRsZTg4Mzg1Ij5yZWN0NjAyNTwvdGl0bGU+JiN4YTsJCQkJPHJlY3QgaWQ9InJlY3Q4ODM4NyIgeD0iMCIgeT0iNDYuNjUiIHN0eWxlPSJmaWxsOiMyQkM3RjQ7IiB3aWR0aD0iMi40IiBoZWlnaHQ9IjEuOTIiLz4mI3hhOwkJCTwvZz4mI3hhOwkJPC9nPiYjeGE7CQk8ZyBpZD0iZ3JvdXA1MTc3LTI2IiB0cmFuc2Zvcm09InRyYW5zbGF0ZSgwLC03LjE5NDQxKSI+JiN4YTsJCQk8dGl0bGUgaWQ9InRpdGxlODgzOTEiPmc2MDMzPC90aXRsZT4mI3hhOwkJCTxnIGlkPSJzaGFwZTUxNzgtMjciPiYjeGE7CQkJCTx0aXRsZSBpZD0idGl0bGU4ODM5MyI+cmVjdDYwMjk8L3RpdGxlPiYjeGE7CQkJCTxyZWN0IGlkPSJyZWN0ODgzOTUiIHg9IjAiIHk9IjQ2LjY1IiBzdHlsZT0iZmlsbDojNDE0MDQyOyIgd2lkdGg9IjQuOCIgaGVpZ2h0PSIxLjkyIi8+JiN4YTsJCQk8L2c+JiN4YTsJCQk8ZyBpZD0ic2hhcGU1MTc5LTI5IiB0cmFuc2Zvcm09InRyYW5zbGF0ZSgyLjM5ODE0KSI+JiN4YTsJCQkJPHRpdGxlIGlkPSJ0aXRsZTg4Mzk4Ij5yZWN0NjAzMTwvdGl0bGU+JiN4YTsJCQkJPHJlY3QgaWQ9InJlY3Q4ODQwMCIgeD0iMCIgeT0iNDYuNjUiIHN0eWxlPSJmaWxsOiMyQkM3RjQ7IiB3aWR0aD0iMi40IiBoZWlnaHQ9IjEuOTIiLz4mI3hhOwkJCTwvZz4mI3hhOwkJPC9nPiYjeGE7CQk8ZyBpZD0ic2hhcGU1MTgwLTMxIiB0cmFuc2Zvcm09InRyYW5zbGF0ZSgxMi45NDk5LC0zMy41NzM5KSI+JiN4YTsJCQk8dGl0bGUgaWQ9InRpdGxlODg0MDQiPnJlY3Q2MDM1PC90aXRsZT4mI3hhOwkJCTxyZWN0IGlkPSJyZWN0ODg0MDYiIHg9IjAiIHk9IjQyLjMzIiBzdHlsZT0iZmlsbDojNTVEMkY2OyIgd2lkdGg9IjIwLjE0IiBoZWlnaHQ9IjYuMjQiLz4mI3hhOwkJPC9nPiYjeGE7CQk8ZyBpZD0ic2hhcGU1MTgxLTMzIiB0cmFuc2Zvcm09InRyYW5zbGF0ZSgyLjg3Nzc2KSI+JiN4YTsJCQk8dGl0bGUgaWQ9InRpdGxlODg0MDkiPnJlY3Q2MDAzPC90aXRsZT4mI3hhOwkJCSYjeGE7CQkJCTxwYXRoIGlkPSJwYXRoODg0MTEiIGlua3NjYXBlOmNvbm5lY3Rvci1jdXJ2YXR1cmU9IjAiIHN0eWxlPSJmaWxsOm5vbmU7c3Ryb2tlOiM1NTZBOEE7c3Ryb2tlLXdpZHRoOjEuNTtzdHJva2UtbWl0ZXJsaW1pdDozOyIgZD0iICAgICBNMCw0Ny42MWMwLDAuNTMsMC40MywwLjk2LDAuOTYsMC45NmwzNC41My0wLjAxYzAuNTMsMCwwLjk2LTAuNDMsMC45Ni0wLjk2bDAtNDMuNjRjMC0wLjUzLTAuNDMtMC45Ni0wLjk2LTAuOTZMMC45NiwzICAgICBDMC40MywzLDAsMy40MywwLDMuOTZMMCw0Ny42MXoiLz4mI3hhOwkJPC9nPiYjeGE7CTwvZz4mI3hhOzwvZz4mI3hhOzwvc3ZnPg==;" vertex="1" parent="1">
          <mxGeometry x="633" y="658.75" width="40" height="47" as="geometry" />
        </mxCell>
        <mxCell id="NH3HatyMuzMGPKfZ8wXx-23" value="" style="rounded=0;whiteSpace=wrap;html=1;fillColor=#f5f5f5;strokeColor=none;fontColor=#333333;" vertex="1" parent="1">
          <mxGeometry x="223" y="506.75" width="118.5" height="193.5" as="geometry" />
        </mxCell>
        <mxCell id="NH3HatyMuzMGPKfZ8wXx-24" value="微服务" style="shadow=0;dashed=0;html=1;strokeColor=none;fillColor=#EF8F21;labelPosition=center;verticalLabelPosition=bottom;verticalAlign=top;align=center;outlineConnect=0;shape=mxgraph.veeam.2d.restful_apis;sketch=0;" vertex="1" parent="1">
          <mxGeometry x="256" y="534.45" width="44.8" height="44.8" as="geometry" />
        </mxCell>
        <mxCell id="NH3HatyMuzMGPKfZ8wXx-25" value="定时任务" style="shadow=0;dashed=0;html=1;strokeColor=none;fillColor=#EF8F21;labelPosition=center;verticalLabelPosition=bottom;verticalAlign=top;align=center;outlineConnect=0;shape=mxgraph.veeam.2d.restful_apis;sketch=0;" vertex="1" parent="1">
          <mxGeometry x="256" y="613.95" width="44.8" height="44.8" as="geometry" />
        </mxCell>
        <mxCell id="NH3HatyMuzMGPKfZ8wXx-26" value="1" style="ellipse;whiteSpace=wrap;html=1;aspect=fixed;fillColor=#4D9900;strokeColor=none;labelBackgroundColor=none;" vertex="1" parent="1">
          <mxGeometry x="331.5" y="494" width="23" height="23" as="geometry" />
        </mxCell>
        <mxCell id="NH3HatyMuzMGPKfZ8wXx-28" value="" style="rounded=0;whiteSpace=wrap;html=1;fillColor=#f5f5f5;strokeColor=none;fontColor=#333333;rotation=-90;" vertex="1" parent="1">
          <mxGeometry x="220.8" y="734.5" width="118.5" height="193.5" as="geometry" />
        </mxCell>
        <mxCell id="NH3HatyMuzMGPKfZ8wXx-32" value="Oracle" style="shape=image;verticalLabelPosition=bottom;labelBackgroundColor=#ffffff;verticalAlign=top;aspect=fixed;imageAspect=0;image=data:image/svg+xml,PHN2ZyB4bWxuczpjYz0iaHR0cDovL2NyZWF0aXZlY29tbW9ucy5vcmcvbnMjIiB4bWxuczpkYz0iaHR0cDovL3B1cmwub3JnL2RjL2VsZW1lbnRzLzEuMS8iIHhtbG5zOmlua3NjYXBlPSJodHRwOi8vd3d3Lmlua3NjYXBlLm9yZy9uYW1lc3BhY2VzL2lua3NjYXBlIiB4bWxuczpyZGY9Imh0dHA6Ly93d3cudzMub3JnLzE5OTkvMDIvMjItcmRmLXN5bnRheC1ucyMiIHhtbG5zOnNvZGlwb2RpPSJodHRwOi8vc29kaXBvZGkuc291cmNlZm9yZ2UubmV0L0RURC9zb2RpcG9kaS0wLmR0ZCIgeG1sbnM6c3ZnPSJodHRwOi8vd3d3LnczLm9yZy8yMDAwL3N2ZyIgeG1sbnM9Imh0dHA6Ly93d3cudzMub3JnLzIwMDAvc3ZnIiB4bWxuczp4bGluaz0iaHR0cDovL3d3dy53My5vcmcvMTk5OS94bGluayIgdmVyc2lvbj0iMS4xIiBpZD0ic3ZnMTAyNDE4IiBpbmtzY2FwZTp2ZXJzaW9uPSIwLjkyLjMgKDI0MDU1NDYsIDIwMTgtMDMtMTEpIiBzb2RpcG9kaTpkb2NuYW1lPSJvcmFjbGVfZGF0YWJhc2Uuc3ZnIiB4PSIwcHgiIHk9IjBweCIgdmlld0JveD0iMCAwIDMwLjYyIDM0LjkzIiBzdHlsZT0iZW5hYmxlLWJhY2tncm91bmQ6bmV3IDAgMCAzMC42MiAzNC45MzsiIHhtbDpzcGFjZT0icHJlc2VydmUiPiYjeGE7PHNvZGlwb2RpOm5hbWVkdmlldyBib3JkZXJjb2xvcj0iIzY2NjY2NiIgYm9yZGVyb3BhY2l0eT0iMSIgZml0LW1hcmdpbi1ib3R0b209IjAiIGZpdC1tYXJnaW4tbGVmdD0iMCIgZml0LW1hcmdpbi1yaWdodD0iMCIgZml0LW1hcmdpbi10b3A9IjAiIGdyaWR0b2xlcmFuY2U9IjEwIiBndWlkZXRvbGVyYW5jZT0iMTAiIGlkPSJuYW1lZHZpZXcxMDI0MjAiIGlua3NjYXBlOmN1cnJlbnQtbGF5ZXI9InN2ZzEwMjQxOCIgaW5rc2NhcGU6Y3g9IjIwLjQxMzUzMyIgaW5rc2NhcGU6Y3k9IjIzLjI4Njg2NiIgaW5rc2NhcGU6cGFnZW9wYWNpdHk9IjAiIGlua3NjYXBlOnBhZ2VzaGFkb3c9IjIiIGlua3NjYXBlOndpbmRvdy1oZWlnaHQ9IjEwMTciIGlua3NjYXBlOndpbmRvdy1tYXhpbWl6ZWQ9IjEiIGlua3NjYXBlOndpbmRvdy13aWR0aD0iMTkyMCIgaW5rc2NhcGU6d2luZG93LXg9Ii04IiBpbmtzY2FwZTp3aW5kb3cteT0iLTgiIGlua3NjYXBlOnpvb209IjE2LjgyODE1NiIgb2JqZWN0dG9sZXJhbmNlPSIxMCIgcGFnZWNvbG9yPSIjZmZmZmZmIiBzaG93Z3JpZD0iZmFsc2UiPiYjeGE7CTwvc29kaXBvZGk6bmFtZWR2aWV3PiYjeGE7PGcgaWQ9ImcxMDI0MTYiIHRyYW5zZm9ybT0idHJhbnNsYXRlKC0xLjg1NDU3OCwtMS44NTEwNSkiPiYjeGE7CTx0aXRsZSBpZD0idGl0bGUxMDIzODEiPlBhZ2UtMTwvdGl0bGU+JiN4YTsJPGcgaWQ9Imdyb3VwMzYxOS0xIiB0cmFuc2Zvcm09InRyYW5zbGF0ZSgxLjg1NDU1LC0xLjg1NDU1KSI+JiN4YTsJCTx0aXRsZSBpZD0idGl0bGUxMDIzODMiPk9yYWNsZSBEYXRhYmFzZTwvdGl0bGU+JiN4YTsJCTxnIGlkPSJzaGFwZTM2MjAtMiIgdHJhbnNmb3JtPSJ0cmFuc2xhdGUoMCwtMC4xMTA1NDMpIj4mI3hhOwkJCTx0aXRsZSBpZD0idGl0bGUxMDIzODUiPlNoZWV0LjM2MjA8L3RpdGxlPiYjeGE7CQkJPHBhdGggaWQ9InBhdGgxMDIzODciIGlua3NjYXBlOmNvbm5lY3Rvci1jdXJ2YXR1cmU9IjAiIHN0eWxlPSJmaWxsOiNFQjIyMjc7IiBkPSJNMTUuMjUsOS4yNEM2Ljg1LDkuMjQsMCw4LjAyLDAsNi40N3YyOS40MSAgICAgYzAsMS41NCw2Ljg1LDIuNzYsMTUuMjUsMi43NmM4LjQxLDAsMTUuMjYtMS4yMiwxNS4yNi0yLjc2VjYuNDdDMzAuNjIsOC4wMiwyMy43Nyw5LjI0LDE1LjI1LDkuMjR6Ii8+JiN4YTsJCTwvZz4mI3hhOwkJPGcgaWQ9InNoYXBlMzYyMS00Ij4mI3hhOwkJCTx0aXRsZSBpZD0idGl0bGUxMDIzOTAiPlNoZWV0LjM2MjE8L3RpdGxlPiYjeGE7CQkJPHBhdGggaWQ9InBhdGgxMDIzOTIiIGlua3NjYXBlOmNvbm5lY3Rvci1jdXJ2YXR1cmU9IjAiIHN0eWxlPSJmaWxsOiNEODIzMjg7IiBkPSJNMCw2LjQ3djI5LjQxYzAsMS41NCw2Ljg1LDIuNzYsMTUuMjUsMi43NiAgICAgVjkuMjRDNi44NSw5LjEzLDAsNy45MSwwLDYuNDd6Ii8+JiN4YTsJCTwvZz4mI3hhOwkJPGcgaWQ9InNoYXBlMzYyMi02IiB0cmFuc2Zvcm09InRyYW5zbGF0ZSgyOC41MiwtMS40MzcwNikiPiYjeGE7CQkJPHRpdGxlIGlkPSJ0aXRsZTEwMjM5NSI+U2hlZXQuMzYyMjwvdGl0bGU+JiN4YTsJCQk8cGF0aCBpZD0icGF0aDEwMjM5NyIgaW5rc2NhcGU6Y29ubmVjdG9yLWN1cnZhdHVyZT0iMCIgc3R5bGU9ImZpbGw6I0Q4MjMyODsiIGQ9Ik0wLDkuMjR2MjkuNGMxLjMzLTAuNDQsMi4xLTAuODgsMi4xLTEuMzNWNy45MSAgICAgQzIuMSw4LjM1LDEuMzMsOC45LDAsOS4yNHoiLz4mI3hhOwkJPC9nPiYjeGE7CQk8ZyBpZD0ic2hhcGUzNjIzLTgiIHRyYW5zZm9ybT0idHJhbnNsYXRlKDAuMTEwNTQzLC0yOS40MDQ0KSI+JiN4YTsJCQk8dGl0bGUgaWQ9InRpdGxlMTAyNDAwIj5TaGVldC4zNjIzPC90aXRsZT4mI3hhOwkJCTxwYXRoIGlkPSJwYXRoMTAyNDAyIiBpbmtzY2FwZTpjb25uZWN0b3ItY3VydmF0dXJlPSIwIiBzdHlsZT0iZmlsbDojQjkyMzI3OyIgZD0iTTMwLjUxLDM1Ljg4YzAsMS41NC02Ljg1LDIuNzYtMTUuMjYsMi43NiAgICAgQzYuODUsMzguNjQsMCwzNy40MiwwLDM1Ljg4YzAtMS41NSw2Ljg1LTIuNzcsMTUuMjUtMi43N0MyMy42NiwzMy4xMSwzMC41MSwzNC4zMywzMC41MSwzNS44OHoiLz4mI3hhOwkJPC9nPiYjeGE7CQk8ZyBpZD0ic2hhcGUzNjI0LTEwIiB0cmFuc2Zvcm09InRyYW5zbGF0ZSgwLC04LjczMjg4KSI+JiN4YTsJCQk8dGl0bGUgaWQ9InRpdGxlMTAyNDA1Ij5TaGVldC4zNjI0PC90aXRsZT4mI3hhOwkJCTxwYXRoIGlkPSJwYXRoMTAyNDA3IiBpbmtzY2FwZTpjb25uZWN0b3ItY3VydmF0dXJlPSIwIiBzdHlsZT0iZmlsbDojOUExQzIxOyIgZD0iTTAsMzMuNjdjMCwxLjU0LDYuODUsMi43NiwxNS4yNSwyLjc2ICAgICBjOC40MSwwLDE1LjI2LTEuMjIsMTUuMjYtMi43NnYyLjIxYzAsMS41NC02Ljg1LDIuNzYtMTUuMjYsMi43NkM2Ljg1LDM4LjY0LDAsMzcuNDIsMCwzNS44OFYzMy42N3oiLz4mI3hhOwkJPC9nPiYjeGE7CQk8ZyBpZD0ic2hhcGUzNjI1LTEyIiB0cmFuc2Zvcm09InRyYW5zbGF0ZSgwLjExMDU0MywtMTguNDYwNikiPiYjeGE7CQkJPHRpdGxlIGlkPSJ0aXRsZTEwMjQxMCI+U2hlZXQuMzYyNTwvdGl0bGU+JiN4YTsJCQk8cGF0aCBpZD0icGF0aDEwMjQxMiIgaW5rc2NhcGU6Y29ubmVjdG9yLWN1cnZhdHVyZT0iMCIgc3R5bGU9ImZpbGw6IzlBMUMyMTsiIGQ9Ik0zMC41MSwzMy42N2MwLDEuNTQtNi44NSwyLjc2LTE1LjI2LDIuNzYgICAgIEM2Ljg1LDM2LjQzLDAsMzUuMjEsMCwzMy42N3YyLjIxYzAsMS41NCw2Ljg1LDIuNzYsMTUuMjUsMi43NmM4LjQxLDAsMTUuMjYtMS4yMiwxNS4yNi0yLjc2VjMzLjY3eiIvPiYjeGE7CQk8L2c+JiN4YTsJPC9nPiYjeGE7PC9nPiYjeGE7PC9zdmc+;" vertex="1" parent="1">
          <mxGeometry x="210" y="811" width="31" height="35" as="geometry" />
        </mxCell>
        <mxCell id="NH3HatyMuzMGPKfZ8wXx-33" value="Mysql" style="shape=image;verticalLabelPosition=bottom;labelBackgroundColor=#ffffff;verticalAlign=top;aspect=fixed;imageAspect=0;image=data:image/svg+xml,PHN2ZyB4bWxuczpjYz0iaHR0cDovL2NyZWF0aXZlY29tbW9ucy5vcmcvbnMjIiB4bWxuczpkYz0iaHR0cDovL3B1cmwub3JnL2RjL2VsZW1lbnRzLzEuMS8iIHhtbG5zOmlua3NjYXBlPSJodHRwOi8vd3d3Lmlua3NjYXBlLm9yZy9uYW1lc3BhY2VzL2lua3NjYXBlIiB4bWxuczpyZGY9Imh0dHA6Ly93d3cudzMub3JnLzE5OTkvMDIvMjItcmRmLXN5bnRheC1ucyMiIHhtbG5zOnNvZGlwb2RpPSJodHRwOi8vc29kaXBvZGkuc291cmNlZm9yZ2UubmV0L0RURC9zb2RpcG9kaS0wLmR0ZCIgeG1sbnM6c3ZnPSJodHRwOi8vd3d3LnczLm9yZy8yMDAwL3N2ZyIgeG1sbnM9Imh0dHA6Ly93d3cudzMub3JnLzIwMDAvc3ZnIiB4bWxuczp4bGluaz0iaHR0cDovL3d3dy53My5vcmcvMTk5OS94bGluayIgdmVyc2lvbj0iMS4xIiBpZD0ic3ZnMTAyMTA3IiBpbmtzY2FwZTp2ZXJzaW9uPSIwLjkyLjMgKDI0MDU1NDYsIDIwMTgtMDMtMTEpIiBzb2RpcG9kaTpkb2NuYW1lPSJteXNxbF8yLnN2ZyIgeD0iMHB4IiB5PSIwcHgiIHZpZXdCb3g9IjAgMCA1Mi44OCA2MC4wNyIgc3R5bGU9ImVuYWJsZS1iYWNrZ3JvdW5kOm5ldyAwIDAgNTIuODggNjAuMDc7IiB4bWw6c3BhY2U9InByZXNlcnZlIj4mI3hhOzxmaWx0ZXIgaWQ9ImZpbHRlcl8yIj4mI3hhOwk8ZmVHYXVzc2lhbkJsdXIgaWQ9ImZlR2F1c3NpYW5CbHVyMTAyMDc1IiBzdGREZXZpYXRpb249IjIiLz4mI3hhOzwvZmlsdGVyPiYjeGE7PHNvZGlwb2RpOm5hbWVkdmlldyBib3JkZXJjb2xvcj0iIzY2NjY2NiIgYm9yZGVyb3BhY2l0eT0iMSIgZml0LW1hcmdpbi1ib3R0b209IjAiIGZpdC1tYXJnaW4tbGVmdD0iMCIgZml0LW1hcmdpbi1yaWdodD0iMCIgZml0LW1hcmdpbi10b3A9IjAiIGdyaWR0b2xlcmFuY2U9IjEwIiBndWlkZXRvbGVyYW5jZT0iMTAiIGlkPSJuYW1lZHZpZXcxMDIxMDkiIGlua3NjYXBlOmN1cnJlbnQtbGF5ZXI9InN2ZzEwMjEwNyIgaW5rc2NhcGU6Y3g9IjM1LjI1IiBpbmtzY2FwZTpjeT0iNDAuMDQ1MjAxIiBpbmtzY2FwZTpwYWdlb3BhY2l0eT0iMCIgaW5rc2NhcGU6cGFnZXNoYWRvdz0iMiIgaW5rc2NhcGU6d2luZG93LWhlaWdodD0iMTAxNyIgaW5rc2NhcGU6d2luZG93LW1heGltaXplZD0iMSIgaW5rc2NhcGU6d2luZG93LXdpZHRoPSIxOTIwIiBpbmtzY2FwZTp3aW5kb3cteD0iLTgiIGlua3NjYXBlOndpbmRvdy15PSItOCIgaW5rc2NhcGU6em9vbT0iMTAuODI0NDc2IiBvYmplY3R0b2xlcmFuY2U9IjEwIiBwYWdlY29sb3I9IiNmZmZmZmYiIHNob3dncmlkPSJmYWxzZSI+JiN4YTsJPC9zb2RpcG9kaTpuYW1lZHZpZXc+JiN4YTs8ZyBpZD0iZzEwMjEwNSI+JiN4YTsJPHRpdGxlIGlkPSJ0aXRsZTEwMjA3OSI+UGFnZS0xPC90aXRsZT4mI3hhOwk8ZyBpZD0iZ3JvdXAzNjM3LTEiPiYjeGE7CQk8dGl0bGUgaWQ9InRpdGxlMTAyMDgxIj5NeVNRTCAjMjwvdGl0bGU+JiN4YTsJCTxnIGlkPSJzaGFwZTM2MzgtMiI+JiN4YTsJCQk8dGl0bGUgaWQ9InRpdGxlMTAyMDgzIj5EYXRhYmFzZSAjMjwvdGl0bGU+JiN4YTsJCQk8cGF0aCBpZD0icGF0aDEwMjA4NSIgaW5rc2NhcGU6Y29ubmVjdG9yLWN1cnZhdHVyZT0iMCIgc3R5bGU9ImZpbGw6IzNGNTc2NTsiIGQ9Ik0yNi43MSwwYzE0LjY0LDAsMjYuMTcsMy45MywyNi4xNyw4LjMxICAgICBjMCw0My41NCwwLDQzLjU0LDAsNDMuNTRjMCw0LjgzLTExLjUzLDguMjItMjYuMTcsOC4yMkMxMi4xNSw2MC4wNywwLDU2LjY4LDAsNTEuODVDMCw4LjMxLDAsOC4zMSwwLDguMzEgICAgIEMwLDMuOTMsMTIuMTUsMCwyNi43MSwweiBNMjYuNzEsMTQuMjFjMTIuNTksMCwyMi42OC0yLjk1LDIyLjY4LTUuOWMwLTIuODYtMTAuMDktNS4zNi0yMi42OC01LjM2Yy0xMi42LDAtMjIuNiwyLjUtMjIuNiw1LjM2ICAgICBDNC4xMSwxMS4yNiwxNC4xMSwxNC4yMSwyNi43MSwxNC4yMXoiLz4mI3hhOwkJPC9nPiYjeGE7CQk8ZyBpZD0ic2hhcGUzNjM5LTQiIHRyYW5zZm9ybT0idHJhbnNsYXRlKDEwLjU4OTIsLTcuMjMwNDkpIj4mI3hhOwkJCTx0aXRsZSBpZD0idGl0bGUxMDIwODgiPlNoZWV0LjM2Mzk8L3RpdGxlPiYjeGE7CQkJPGcgaWQ9InNoYWRvdzM2MzktNSIgdHJhbnNmb3JtPSJ0cmFuc2xhdGUoMC4zNDU2LDEuOTcyOCkiPiYjeGE7CQkJCTxnIGlkPSJwYXRoMTAyMDkwIiBpbmtzY2FwZTpjb25uZWN0b3ItY3VydmF0dXJlPSIwIiBzdHlsZT0iZmlsdGVyOnVybCgjZmlsdGVyXzIpOyI+JiN4YTsJCQkJCTxwYXRoIHN0eWxlPSJvcGFjaXR5OjAuMjI7ZmlsbDojNUI5QkQ1OyIgZD0iTTMyLjY3LDUyLjMyYy0xLjkxLTAuMDUtMy4zNiwwLjEzLTQuNjEsMC42NWMtMC4zNSwwLjE1LTAuOTIsMC4xNS0wLjk3LDAuNiAgICAgICBjMC4xOSwwLjIsMC4yMiwwLjUxLDAuMzgsMC43NmMwLjI5LDAuNDgsMC43OSwxLjEyLDEuMjQsMS40NmMwLjQ5LDAuMzcsMSwwLjc2LDEuNTIsMS4wOGMwLjkzLDAuNTcsMS45NywwLjksMi44NywxLjQ3ICAgICAgIGMwLjUzLDAuMzMsMS4wNiwwLjc2LDEuNTcsMS4xNGMwLjI2LDAuMTgsMC40MywwLjQ3LDAuNzYsMC41OWMwLTAuMDIsMC0wLjAzLDAtMC4wNWMtMC4xNy0wLjIyLTAuMjItMC41My0wLjM4LTAuNzYgICAgICAgYy0wLjIzLTAuMjQtMC40Ny0wLjQ3LTAuNy0wLjcxYy0wLjY5LTAuOTEtMS41Ni0xLjcxLTIuNDktMi4zOGMtMC43NS0wLjUzLTIuNC0xLjI1LTIuNzEtMi4xMWMtMC4wMi0wLjAyLTAuMDQtMC4wNC0wLjA2LTAuMDYgICAgICAgYzAuNTMtMC4wNiwxLjE0LTAuMjUsMS42My0wLjM4YzAuODEtMC4yMiwxLjU0LTAuMTYsMi4zOC0wLjM4YzAuMzgtMC4xMSwwLjc2LTAuMjEsMS4xNC0wLjMyYzAtMC4wNywwLTAuMTUsMC0wLjIyICAgICAgIGMtMC40Mi0wLjQ0LTAuNzMtMS4wMS0xLjE5LTEuNDFjLTEuMjItMS4wMy0yLjU0LTIuMDYtMy45LTIuOTNjLTAuNzYtMC40Ny0xLjctMC43OC0yLjUtMS4xOWMtMC4yNy0wLjEzLTAuNzQtMC4yLTAuOTItMC40MyAgICAgICBjLTAuNDItMC41NC0wLjY1LTEuMjItMC45Ny0xLjg0Yy0wLjY4LTEuMzEtMS4zNS0yLjc1LTEuOTYtNC4xMmMtMC40MS0wLjk0LTAuNjgtMS44Ny0xLjE5LTIuNzEgICAgICAgYy0yLjQ2LTQuMDUtNS4xMS02LjQ5LTkuMjEtOC44OWMtMC44OC0wLjUxLTEuOTMtMC43Mi0zLjA0LTAuOThjLTAuNTktMC4wNC0xLjE5LTAuMDctMS43OS0wLjExICAgICAgIGMtMC4zNi0wLjE1LTAuNzQtMC42LTEuMDgtMC44MWMtMS4zNi0wLjg2LTQuODUtMi43My01Ljg1LTAuMjdDMCwyOC41NiwxLjU5LDMwLjA3LDIuMTUsMzAuODZjMC40LDAuNTUsMC45MSwxLjE3LDEuMiwxLjc5ICAgICAgIGMwLjE4LDAuNCwwLjIyLDAuODEsMC4zOCwxLjI0YzAuMzksMS4wNiwwLjczLDIuMjIsMS4yNCwzLjJjMC4yNiwwLjUsMC41NCwxLjAyLDAuODcsMS40NmMwLjIsMC4yOCwwLjU0LDAuNCwwLjYsMC44MiAgICAgICBjLTAuMzQsMC40Ni0wLjM2LDEuMTktMC41NSwxLjc5Yy0wLjg0LDIuNjctMC41Miw1Ljk5LDAuNzEsNy45NmMwLjM4LDAuNjEsMS4yNywxLjkxLDIuNDksMS40MWMxLjA3LTAuNDMsMC44My0xLjc5LDEuMTQtMi45OCAgICAgICBjMC4wNy0wLjI3LDAuMDMtMC40NywwLjE2LTAuNjVjMCwwLjAyLDAsMC4wNCwwLDAuMDZjMC4zMywwLjY1LDAuNjUsMS4zLDAuOTgsMS45NWMwLjcyLDEuMTYsMiwyLjM3LDMuMDksMy4xOSAgICAgICBjMC41NiwwLjQzLDEsMS4xNywxLjczLDEuNDFjMC0wLjAxLDAtMC4wMywwLTAuMDVjLTAuMDIsMC0wLjAzLDAtMC4wNSwwYy0wLjE0LTAuMjItMC4zNi0wLjMxLTAuNTQtMC40OSAgICAgICBjLTAuNDMtMC40MS0wLjktMC45My0xLjI1LTEuNDFjLTAuOTktMS4zNC0xLjg2LTIuODEtMi42Ni00LjMzYy0wLjM4LTAuNzMtMC43MS0xLjU0LTEuMDMtMi4yOCAgICAgICBjLTAuMTItMC4yOS0wLjEyLTAuNzItMC4zOC0wLjg3Yy0wLjM1LDAuNTUtMC44NiwwLjk5LTEuMTMsMS42M2MtMC40NCwxLjAzLTAuNDksMi4yOC0wLjY1LDMuNTggICAgICAgYy0wLjEsMC4wMy0wLjA2LDAuMDEtMC4xMSwwLjA1Yy0wLjc2LTAuMTgtMS4wMi0wLjk2LTEuMy0xLjYzYy0wLjcxLTEuNjgtMC44NS00LjQtMC4yMi02LjM0YzAuMTYtMC41LDAuODktMi4wOCwwLjU5LTIuNTUgICAgICAgYy0wLjE0LTAuNDYtMC42LTAuNzMtMC44Ni0xLjA4Yy0wLjMyLTAuNDQtMC42NS0xLjAxLTAuODctMS41MmMtMC41OC0xLjMxLTAuODUtMi43OS0xLjQ2LTQuMTJjLTAuMy0wLjYzLTAuNzktMS4yNy0xLjItMS44NCAgICAgICBjLTAuNDQtMC42My0wLjk1LTEuMDktMS4zLTEuODRjLTAuMTItMC4yNy0wLjI5LTAuNy0wLjEtMC45OGMwLjA1LTAuMTgsMC4xNC0wLjI2LDAuMzItMC4zMmMwLjMyLTAuMjUsMS4xOSwwLjA4LDEuNTIsMC4yMSAgICAgICBjMC44NywwLjM2LDEuNTksMC43MSwyLjMzLDEuMmMwLjM1LDAuMjMsMC43MSwwLjY4LDEuMTQsMC44MWMwLjE2LDAsMC4zMiwwLDAuNDgsMGMwLjc3LDAuMTcsMS42MiwwLjA1LDIuMzQsMC4yNyAgICAgICBjMS4yNiwwLjM4LDIuMzgsMC45OCwzLjQxLDEuNjNjMy4xMiwxLjk3LDUuNjgsNC43OCw3LjQzLDguMTNjMC4yOCwwLjU0LDAuNCwxLjA1LDAuNjUsMS42MmMwLjUsMS4xNiwxLjEzLDIuMzQsMS42MiwzLjQ3ICAgICAgIGMwLjUsMS4xMywwLjk4LDIuMjYsMS42OCwzLjJjMC4zNywwLjQ5LDEuOCwwLjc2LDIuNDQsMS4wM2MwLjQ2LDAuMTksMS4yLDAuMzksMS42MywwLjY1YzAuODIsMC40OSwxLjYxLDEuMDgsMi4zOCwxLjYzICAgICAgIEMzMS40Myw1MS4yNCwzMi42MSw1MS44MywzMi42Nyw1Mi4zMnoiLz4mI3hhOwkJCQk8L2c+JiN4YTsJCQk8L2c+JiN4YTsJCQk8cGF0aCBpZD0icGF0aDEwMjA5MyIgaW5rc2NhcGU6Y29ubmVjdG9yLWN1cnZhdHVyZT0iMCIgc3R5bGU9ImZpbGw6I0ZGRkZGRjsiIGQ9Ik0zMi42Nyw1Mi4zMmMtMS45MS0wLjA1LTMuMzYsMC4xMy00LjYxLDAuNjUgICAgIGMtMC4zNSwwLjE1LTAuOTIsMC4xNS0wLjk3LDAuNmMwLjE5LDAuMiwwLjIyLDAuNTEsMC4zOCwwLjc2YzAuMjksMC40OCwwLjc5LDEuMTIsMS4yNCwxLjQ2YzAuNDksMC4zNywxLDAuNzYsMS41MiwxLjA4ICAgICBjMC45MywwLjU3LDEuOTcsMC45LDIuODcsMS40N2MwLjUzLDAuMzMsMS4wNiwwLjc2LDEuNTcsMS4xNGMwLjI2LDAuMTgsMC40MywwLjQ3LDAuNzYsMC41OWMwLTAuMDIsMC0wLjAzLDAtMC4wNSAgICAgYy0wLjE3LTAuMjItMC4yMi0wLjUzLTAuMzgtMC43NmMtMC4yMy0wLjI0LTAuNDctMC40Ny0wLjctMC43MWMtMC42OS0wLjkxLTEuNTYtMS43MS0yLjQ5LTIuMzhjLTAuNzUtMC41My0yLjQtMS4yNS0yLjcxLTIuMTEgICAgIGMtMC4wMi0wLjAyLTAuMDQtMC4wNC0wLjA2LTAuMDZjMC41My0wLjA2LDEuMTQtMC4yNSwxLjYzLTAuMzhjMC44MS0wLjIyLDEuNTQtMC4xNiwyLjM4LTAuMzhjMC4zOC0wLjExLDAuNzYtMC4yMSwxLjE0LTAuMzIgICAgIGMwLTAuMDcsMC0wLjE1LDAtMC4yMmMtMC40Mi0wLjQ0LTAuNzMtMS4wMS0xLjE5LTEuNDFjLTEuMjItMS4wMy0yLjU0LTIuMDYtMy45LTIuOTNjLTAuNzYtMC40Ny0xLjctMC43OC0yLjUtMS4xOSAgICAgYy0wLjI3LTAuMTMtMC43NC0wLjItMC45Mi0wLjQzYy0wLjQyLTAuNTQtMC42NS0xLjIyLTAuOTctMS44NGMtMC42OC0xLjMxLTEuMzUtMi43NS0xLjk2LTQuMTJjLTAuNDEtMC45NC0wLjY4LTEuODctMS4xOS0yLjcxICAgICBjLTIuNDYtNC4wNS01LjExLTYuNDktOS4yMS04Ljg5Yy0wLjg4LTAuNTEtMS45My0wLjcyLTMuMDQtMC45OGMtMC41OS0wLjA0LTEuMTktMC4wNy0xLjc5LTAuMTFjLTAuMzYtMC4xNS0wLjc0LTAuNi0xLjA4LTAuODEgICAgIGMtMS4zNi0wLjg2LTQuODUtMi43My01Ljg1LTAuMjdDMCwyOC41NiwxLjU5LDMwLjA3LDIuMTUsMzAuODZjMC40LDAuNTUsMC45MSwxLjE3LDEuMiwxLjc5YzAuMTgsMC40LDAuMjIsMC44MSwwLjM4LDEuMjQgICAgIGMwLjM5LDEuMDYsMC43MywyLjIyLDEuMjQsMy4yYzAuMjYsMC41LDAuNTQsMS4wMiwwLjg3LDEuNDZjMC4yLDAuMjgsMC41NCwwLjQsMC42LDAuODJjLTAuMzQsMC40Ni0wLjM2LDEuMTktMC41NSwxLjc5ICAgICBjLTAuODQsMi42Ny0wLjUyLDUuOTksMC43MSw3Ljk2YzAuMzgsMC42MSwxLjI3LDEuOTEsMi40OSwxLjQxYzEuMDctMC40MywwLjgzLTEuNzksMS4xNC0yLjk4YzAuMDctMC4yNywwLjAzLTAuNDcsMC4xNi0wLjY1ICAgICBjMCwwLjAyLDAsMC4wNCwwLDAuMDZjMC4zMywwLjY1LDAuNjUsMS4zLDAuOTgsMS45NWMwLjcyLDEuMTYsMiwyLjM3LDMuMDksMy4xOWMwLjU2LDAuNDMsMSwxLjE3LDEuNzMsMS40MSAgICAgYzAtMC4wMSwwLTAuMDMsMC0wLjA1Yy0wLjAyLDAtMC4wMywwLTAuMDUsMGMtMC4xNC0wLjIyLTAuMzYtMC4zMS0wLjU0LTAuNDljLTAuNDMtMC40MS0wLjktMC45My0xLjI1LTEuNDEgICAgIGMtMC45OS0xLjM0LTEuODYtMi44MS0yLjY2LTQuMzNjLTAuMzgtMC43My0wLjcxLTEuNTQtMS4wMy0yLjI4Yy0wLjEyLTAuMjktMC4xMi0wLjcyLTAuMzgtMC44N2MtMC4zNSwwLjU1LTAuODYsMC45OS0xLjEzLDEuNjMgICAgIGMtMC40NCwxLjAzLTAuNDksMi4yOC0wLjY1LDMuNThjLTAuMSwwLjAzLTAuMDYsMC4wMS0wLjExLDAuMDVjLTAuNzYtMC4xOC0xLjAyLTAuOTYtMS4zLTEuNjNjLTAuNzEtMS42OC0wLjg1LTQuNC0wLjIyLTYuMzQgICAgIGMwLjE2LTAuNSwwLjg5LTIuMDgsMC41OS0yLjU1Yy0wLjE0LTAuNDYtMC42LTAuNzMtMC44Ni0xLjA4Yy0wLjMyLTAuNDQtMC42NS0xLjAxLTAuODctMS41MmMtMC41OC0xLjMxLTAuODUtMi43OS0xLjQ2LTQuMTIgICAgIGMtMC4zLTAuNjMtMC43OS0xLjI3LTEuMi0xLjg0Yy0wLjQ0LTAuNjMtMC45NS0xLjA5LTEuMy0xLjg0Yy0wLjEyLTAuMjctMC4yOS0wLjctMC4xLTAuOThjMC4wNS0wLjE4LDAuMTQtMC4yNiwwLjMyLTAuMzIgICAgIGMwLjMyLTAuMjUsMS4xOSwwLjA4LDEuNTIsMC4yMWMwLjg3LDAuMzYsMS41OSwwLjcxLDIuMzMsMS4yYzAuMzUsMC4yMywwLjcxLDAuNjgsMS4xNCwwLjgxYzAuMTYsMCwwLjMyLDAsMC40OCwwICAgICBjMC43NywwLjE3LDEuNjIsMC4wNSwyLjM0LDAuMjdjMS4yNiwwLjM4LDIuMzgsMC45OCwzLjQxLDEuNjNjMy4xMiwxLjk3LDUuNjgsNC43OCw3LjQzLDguMTNjMC4yOCwwLjU0LDAuNCwxLjA1LDAuNjUsMS42MiAgICAgYzAuNSwxLjE2LDEuMTMsMi4zNCwxLjYyLDMuNDdjMC41LDEuMTMsMC45OCwyLjI2LDEuNjgsMy4yYzAuMzcsMC40OSwxLjgsMC43NiwyLjQ0LDEuMDNjMC40NiwwLjE5LDEuMiwwLjM5LDEuNjMsMC42NSAgICAgYzAuODIsMC40OSwxLjYxLDEuMDgsMi4zOCwxLjYzQzMxLjQzLDUxLjI0LDMyLjYxLDUxLjgzLDMyLjY3LDUyLjMyeiIvPiYjeGE7CQk8L2c+JiN4YTsJCTxnIGlkPSJzaGFwZTM2NDAtOSIgdHJhbnNmb3JtPSJ0cmFuc2xhdGUoMTguMDU0MiwtMzMuMzU2NSkiPiYjeGE7CQkJPHRpdGxlIGlkPSJ0aXRsZTEwMjA5NiI+U2hlZXQuMzY0MDwvdGl0bGU+JiN4YTsJCQk8ZyBpZD0ic2hhZG93MzY0MC0xMCIgdHJhbnNmb3JtPSJ0cmFuc2xhdGUoMC4zNDU2LDEuOTcyOCkiPiYjeGE7CQkJCTxnIGlkPSJwYXRoMTAyMDk4IiBpbmtzY2FwZTpjb25uZWN0b3ItY3VydmF0dXJlPSIwIiBzdHlsZT0iZmlsdGVyOnVybCgjZmlsdGVyXzIpOyI+JiN4YTsJCQkJCTxwYXRoIHN0eWxlPSJvcGFjaXR5OjAuMjI7ZmlsbDojNUI5QkQ1OyIgZD0iTTAuOTgsNTcuOEMwLjU4LDU3Ljc5LDAuMyw1Ny44NCwwLDU3LjljMCwwLjAyLDAsMC4wNCwwLDAuMDYgICAgICAgYzAuMDIsMCwwLjA0LDAsMC4wNSwwYzAuMTksMC4zOSwwLjUzLDAuNjQsMC43NiwwLjk3YzAuMTgsMC4zOCwwLjM2LDAuNzYsMC41NSwxLjE0YzAuMDEtMC4wMiwwLjAzLTAuMDMsMC4wNS0wLjA1ICAgICAgIGMwLjMzLTAuMjQsMC40OS0wLjYyLDAuNDktMS4xOWMtMC4xNC0wLjE1LTAuMTYtMC4zMi0wLjI3LTAuNDlDMS40Nyw1OC4xMSwxLjE3LDU3Ljk4LDAuOTgsNTcuOHoiLz4mI3hhOwkJCQk8L2c+JiN4YTsJCQk8L2c+JiN4YTsJCQk8cGF0aCBpZD0icGF0aDEwMjEwMSIgaW5rc2NhcGU6Y29ubmVjdG9yLWN1cnZhdHVyZT0iMCIgc3R5bGU9ImZpbGw6I0ZGRkZGRjsiIGQ9Ik0wLjk4LDU3LjhDMC41OCw1Ny43OSwwLjMsNTcuODQsMCw1Ny45ICAgICBjMCwwLjAyLDAsMC4wNCwwLDAuMDZjMC4wMiwwLDAuMDQsMCwwLjA1LDBjMC4xOSwwLjM5LDAuNTMsMC42NCwwLjc2LDAuOTdjMC4xOCwwLjM4LDAuMzYsMC43NiwwLjU1LDEuMTQgICAgIGMwLjAxLTAuMDIsMC4wMy0wLjAzLDAuMDUtMC4wNWMwLjMzLTAuMjQsMC40OS0wLjYyLDAuNDktMS4xOWMtMC4xNC0wLjE1LTAuMTYtMC4zMi0wLjI3LTAuNDlDMS40Nyw1OC4xMSwxLjE3LDU3Ljk4LDAuOTgsNTcuOHogICAgICIvPiYjeGE7CQk8L2c+JiN4YTsJPC9nPiYjeGE7PC9nPiYjeGE7PC9zdmc+;" vertex="1" parent="1">
          <mxGeometry x="300" y="801.25" width="53" height="60" as="geometry" />
        </mxCell>
        <mxCell id="NH3HatyMuzMGPKfZ8wXx-44" value="" style="edgeStyle=orthogonalEdgeStyle;rounded=0;orthogonalLoop=1;jettySize=auto;html=1;strokeColor=#6c8ebf;fillColor=#dae8fc;" edge="1" parent="1" source="NH3HatyMuzMGPKfZ8wXx-34" target="NH3HatyMuzMGPKfZ8wXx-11">
          <mxGeometry relative="1" as="geometry" />
        </mxCell>
        <mxCell id="NH3HatyMuzMGPKfZ8wXx-34" value="Users" style="aspect=fixed;html=1;perimeter=none;align=center;shadow=0;dashed=0;image;fontSize=12;image=img/lib/mscae/PersonWithFriend.svg;" vertex="1" parent="1">
          <mxGeometry x="426.54" y="249.75" width="50" height="49.5" as="geometry" />
        </mxCell>
        <mxCell id="NH3HatyMuzMGPKfZ8wXx-43" value="" style="edgeStyle=orthogonalEdgeStyle;rounded=0;orthogonalLoop=1;jettySize=auto;html=1;strokeColor=#6c8ebf;fillColor=#dae8fc;" edge="1" parent="1" source="NH3HatyMuzMGPKfZ8wXx-39">
          <mxGeometry relative="1" as="geometry">
            <mxPoint x="613" y="831" as="targetPoint" />
          </mxGeometry>
        </mxCell>
        <mxCell id="NH3HatyMuzMGPKfZ8wXx-45" value="" style="edgeStyle=orthogonalEdgeStyle;rounded=0;orthogonalLoop=1;jettySize=auto;html=1;strokeColor=#6c8ebf;fillColor=#dae8fc;" edge="1" parent="1" source="NH3HatyMuzMGPKfZ8wXx-39">
          <mxGeometry relative="1" as="geometry">
            <mxPoint x="373" y="831" as="targetPoint" />
          </mxGeometry>
        </mxCell>
        <mxCell id="NH3HatyMuzMGPKfZ8wXx-39" value="Canal/DataX/DataBus" style="verticalLabelPosition=bottom;html=1;verticalAlign=top;strokeWidth=1;align=center;outlineConnect=0;dashed=0;outlineConnect=0;shape=mxgraph.aws3d.rdsSlave;fillColor=#ECECEC;strokeColor=#5E5E5E;aspect=fixed;sketch=0;" vertex="1" parent="1">
          <mxGeometry x="426.5" y="796.25" width="64.74" height="70" as="geometry" />
        </mxCell>
        <mxCell id="NH3HatyMuzMGPKfZ8wXx-47" style="edgeStyle=elbowEdgeStyle;rounded=0;orthogonalLoop=1;jettySize=auto;html=1;elbow=vertical;startArrow=classic;startFill=1;strokeColor=#6c8ebf;fillColor=#dae8fc;" edge="1" parent="1" source="NH3HatyMuzMGPKfZ8wXx-23" target="NH3HatyMuzMGPKfZ8wXx-28">
          <mxGeometry relative="1" as="geometry">
            <mxPoint x="280" y="709" as="sourcePoint" />
            <mxPoint x="343.4799999999999" y="421.51200000000017" as="targetPoint" />
            <Array as="points">
              <mxPoint x="280" y="714" />
            </Array>
          </mxGeometry>
        </mxCell>
        <mxCell id="NH3HatyMuzMGPKfZ8wXx-48" style="edgeStyle=elbowEdgeStyle;rounded=0;orthogonalLoop=1;jettySize=auto;html=1;elbow=vertical;startArrow=classic;startFill=1;strokeColor=#6c8ebf;fillColor=#dae8fc;exitX=1.013;exitY=0.447;exitDx=0;exitDy=0;exitPerimeter=0;" edge="1" parent="1" source="NH3HatyMuzMGPKfZ8wXx-50">
          <mxGeometry relative="1" as="geometry">
            <mxPoint x="523" y="594" as="sourcePoint" />
            <mxPoint x="606" y="590.05" as="targetPoint" />
          </mxGeometry>
        </mxCell>
        <mxCell id="NH3HatyMuzMGPKfZ8wXx-49" style="edgeStyle=elbowEdgeStyle;rounded=0;orthogonalLoop=1;jettySize=auto;html=1;elbow=vertical;startArrow=classic;startFill=1;strokeColor=#6c8ebf;fillColor=#dae8fc;entryX=0.432;entryY=-0.032;entryDx=0;entryDy=0;entryPerimeter=0;" edge="1" parent="1" target="NH3HatyMuzMGPKfZ8wXx-39">
          <mxGeometry relative="1" as="geometry">
            <mxPoint x="454.5" y="697" as="sourcePoint" />
            <mxPoint x="454.5" y="782.8" as="targetPoint" />
            <Array as="points">
              <mxPoint x="487.5" y="748.8" />
            </Array>
          </mxGeometry>
        </mxCell>
        <mxCell id="NH3HatyMuzMGPKfZ8wXx-57" value="" style="edgeStyle=orthogonalEdgeStyle;rounded=0;orthogonalLoop=1;jettySize=auto;html=1;strokeColor=#6c8ebf;fillColor=#dae8fc;" edge="1" parent="1" source="NH3HatyMuzMGPKfZ8wXx-50">
          <mxGeometry relative="1" as="geometry">
            <mxPoint x="633" y="686" as="targetPoint" />
            <Array as="points">
              <mxPoint x="553" y="686" />
              <mxPoint x="553" y="686" />
            </Array>
          </mxGeometry>
        </mxCell>
        <mxCell id="NH3HatyMuzMGPKfZ8wXx-50" value="" style="rounded=0;whiteSpace=wrap;html=1;fillColor=#f5f5f5;strokeColor=none;fontColor=#333333;" vertex="1" parent="1">
          <mxGeometry x="393" y="503.5" width="118.5" height="193.5" as="geometry" />
        </mxCell>
        <mxCell id="NH3HatyMuzMGPKfZ8wXx-51" value="API GateWay" style="shape=image;verticalLabelPosition=bottom;labelBackgroundColor=#ffffff;verticalAlign=top;aspect=fixed;imageAspect=0;image=data:image/svg+xml,PHN2ZyB4bWxuczpjYz0iaHR0cDovL2NyZWF0aXZlY29tbW9ucy5vcmcvbnMjIiB4bWxuczpkYz0iaHR0cDovL3B1cmwub3JnL2RjL2VsZW1lbnRzLzEuMS8iIHhtbG5zOmlua3NjYXBlPSJodHRwOi8vd3d3Lmlua3NjYXBlLm9yZy9uYW1lc3BhY2VzL2lua3NjYXBlIiB4bWxuczpyZGY9Imh0dHA6Ly93d3cudzMub3JnLzE5OTkvMDIvMjItcmRmLXN5bnRheC1ucyMiIHhtbG5zOnNvZGlwb2RpPSJodHRwOi8vc29kaXBvZGkuc291cmNlZm9yZ2UubmV0L0RURC9zb2RpcG9kaS0wLmR0ZCIgeG1sbnM6c3ZnPSJodHRwOi8vd3d3LnczLm9yZy8yMDAwL3N2ZyIgeG1sbnM9Imh0dHA6Ly93d3cudzMub3JnLzIwMDAvc3ZnIiB4bWxuczp4bGluaz0iaHR0cDovL3d3dy53My5vcmcvMTk5OS94bGluayIgdmVyc2lvbj0iMS4xIiBpZD0ic3ZnMTUzOTk1IiBpbmtzY2FwZTp2ZXJzaW9uPSIwLjkyLjMgKDI0MDU1NDYsIDIwMTgtMDMtMTEpIiBzb2RpcG9kaTpkb2NuYW1lPSJhcGlfbWFuYWdlbWVudC5zdmciIHg9IjBweCIgeT0iMHB4IiB2aWV3Qm94PSIwIDAgMzMuNTIgMjcuNTEiIHN0eWxlPSJlbmFibGUtYmFja2dyb3VuZDpuZXcgMCAwIDMzLjUyIDI3LjUxOyIgeG1sOnNwYWNlPSJwcmVzZXJ2ZSI+JiN4YTs8c29kaXBvZGk6bmFtZWR2aWV3IGJvcmRlcmNvbG9yPSIjNjY2NjY2IiBib3JkZXJvcGFjaXR5PSIxIiBmaXQtbWFyZ2luLWJvdHRvbT0iMCIgZml0LW1hcmdpbi1sZWZ0PSIwIiBmaXQtbWFyZ2luLXJpZ2h0PSIwIiBmaXQtbWFyZ2luLXRvcD0iMCIgZ3JpZHRvbGVyYW5jZT0iMTAiIGd1aWRldG9sZXJhbmNlPSIxMCIgaWQ9Im5hbWVkdmlldzE1Mzk5NyIgaW5rc2NhcGU6Y3VycmVudC1sYXllcj0ic3ZnMTUzOTk1IiBpbmtzY2FwZTpjeD0iMjMuMDM1MDE5IiBpbmtzY2FwZTpjeT0iMTMuMzAzODc5IiBpbmtzY2FwZTpwYWdlb3BhY2l0eT0iMCIgaW5rc2NhcGU6cGFnZXNoYWRvdz0iMiIgaW5rc2NhcGU6d2luZG93LWhlaWdodD0iMTAxNyIgaW5rc2NhcGU6d2luZG93LW1heGltaXplZD0iMSIgaW5rc2NhcGU6d2luZG93LXdpZHRoPSIxOTIwIiBpbmtzY2FwZTp3aW5kb3cteD0iLTgiIGlua3NjYXBlOndpbmRvdy15PSItOCIgaW5rc2NhcGU6em9vbT0iMTYuNzE1MjQxIiBvYmplY3R0b2xlcmFuY2U9IjEwIiBwYWdlY29sb3I9IiNmZmZmZmYiIHNob3dncmlkPSJmYWxzZSI+JiN4YTsJPC9zb2RpcG9kaTpuYW1lZHZpZXc+JiN4YTs8ZyBpZD0iZzE1Mzk5MyI+JiN4YTsJPHRpdGxlIGlkPSJ0aXRsZTE1Mzk4NiI+UGFnZS0xPC90aXRsZT4mI3hhOwk8ZyBpZD0ic2hhcGUzODIzLTEiPiYjeGE7CQk8dGl0bGUgaWQ9InRpdGxlMTUzOTg4Ij5BUEkgTWFuYWdlbWVudDwvdGl0bGU+JiN4YTsJCTxwYXRoIGlkPSJwYXRoMTUzOTkwIiBpbmtzY2FwZTpjb25uZWN0b3ItY3VydmF0dXJlPSIwIiBzdHlsZT0iZmlsbDojM0Y1NzY1OyIgZD0iTTI5LjM1LDExLjUzYzAuMS0wLjQyLDAuMS0wLjYzLDAuMS0xLjI1ICAgIEMyOS40NSw0LjQ2LDI0LjY1LDAsMTguNzksMGMtNC4xNywwLTguMDQsMi4xOC05LjYsNi4wM2MtMC41MywwLTAuOTQtMC4yMS0xLjU3LTAuMjFDMy40NSw1LjgyLDAsOS4xNCwwLDEzLjM5ICAgIGMwLDQuMTUsMy40NSw3LjQ3LDcuNjIsNy40N2gzLjg3YzAuMTEsMC41MywwLjQxLDEuMDUsMC45NCwxLjQ2YzEuMzYsMS40NiwzLjY2LDEuMzUsNSwwYzEuMzYtMS4zNSwxLjM2LTMuNjQsMC00Ljk4ICAgIGMtMS4zNC0xLjQ1LTMuNjQtMS40NS01LDBjLTAuMzIsMC4zMS0wLjUzLDAuOTQtMC43MywxLjM0bC0zLjk3LDAuMTFjLTIuOTIsMC01LjMzLTIuMzgtNS4zMy01LjRjMC0zLDIuMy01LjM5LDUuMzMtNS4zOSAgICBjMC41MiwwLDEuMTUsMC4xLDEuNzgsMC4yMWwxLjE0LDAuMzFsMC4zMS0xLjE0YzEuMTUtMy40Myw0LjI4LTUuNzEsOC4wNS01LjcxYzQuNTksMCw4LjM0LDMuNzMsOC4zNCw4LjMgICAgYzAsMC43My0wLjA5LDEuNDUtMC4zLDIuMThsLTAuNDIsMS42NmwxLjc3LTAuMjFoMC4zMWMxLjM2LDAsMi40MSwxLjE1LDIuNDEsMi4zOWMwLDEuMjUtMC45NCwyLjE4LTIuMDksMi4zOWgtNS45NiAgICBjLTAuMjEtMS42Ny0xLjA0LTMuMTEtMi4xOS00LjI1Yy0xLjQ1LTEuNDYtMy40NS0yLjI5LTUuNTMtMi4yOWMtMS40NiwwLTIuOTIsMC40MS00LjA3LDEuMTVsMS4yNSwxLjk3ICAgIGMwLjk0LTAuNTMsMS44OC0wLjc0LDIuOTItMC43NGMxLjQ3LDAsMi45MywwLjUzLDMuODcsMS42N2MxLjA1LDEuMDMsMS42NywyLjM5LDEuNjcsMy44M2MwLDEuNDYtMC41MiwyLjkyLTEuNjcsMy44NSAgICBjLTEuMDQsMS4xNC0yLjQsMS42Ny0zLjg3LDEuNjdjLTEuMDQsMC0yLjA4LTAuMzItMi45Mi0wLjk1bC0xLjI1LDEuOThjMS4yNSwwLjczLDIuNzEsMS4yNCw0LjA3LDEuMjQgICAgYzIuMDgsMCw0LjA4LTAuNzIsNS41My0yLjI3YzEuMjYtMS4yNSwxLjk4LTIuODEsMi4xOS00LjU3YzAuMzIsMCw2LjA3LTAuMTEsNi4wNy0wLjExaDAuMWMyLjQxLTAuMjEsNC4yOC0yLjI4LDQuMjgtNC43OCAgICBDMzMuMSwxMy44MSwzMS41NCwxMS45NSwyOS4zNSwxMS41M3oiLz4mI3hhOwk8L2c+JiN4YTs8L2c+JiN4YTs8L3N2Zz4=;sketch=0;imageBorder=#FF6666;" vertex="1" parent="1">
          <mxGeometry x="423" y="526.5" width="57.07" height="47" as="geometry" />
        </mxCell>
        <mxCell id="NH3HatyMuzMGPKfZ8wXx-52" value="API GateWay" style="shape=image;verticalLabelPosition=bottom;labelBackgroundColor=#ffffff;verticalAlign=top;aspect=fixed;imageAspect=0;image=data:image/svg+xml,PHN2ZyB4bWxuczpjYz0iaHR0cDovL2NyZWF0aXZlY29tbW9ucy5vcmcvbnMjIiB4bWxuczpkYz0iaHR0cDovL3B1cmwub3JnL2RjL2VsZW1lbnRzLzEuMS8iIHhtbG5zOmlua3NjYXBlPSJodHRwOi8vd3d3Lmlua3NjYXBlLm9yZy9uYW1lc3BhY2VzL2lua3NjYXBlIiB4bWxuczpyZGY9Imh0dHA6Ly93d3cudzMub3JnLzE5OTkvMDIvMjItcmRmLXN5bnRheC1ucyMiIHhtbG5zOnNvZGlwb2RpPSJodHRwOi8vc29kaXBvZGkuc291cmNlZm9yZ2UubmV0L0RURC9zb2RpcG9kaS0wLmR0ZCIgeG1sbnM6c3ZnPSJodHRwOi8vd3d3LnczLm9yZy8yMDAwL3N2ZyIgeG1sbnM9Imh0dHA6Ly93d3cudzMub3JnLzIwMDAvc3ZnIiB4bWxuczp4bGluaz0iaHR0cDovL3d3dy53My5vcmcvMTk5OS94bGluayIgdmVyc2lvbj0iMS4xIiBpZD0ic3ZnMTUzOTk1IiBpbmtzY2FwZTp2ZXJzaW9uPSIwLjkyLjMgKDI0MDU1NDYsIDIwMTgtMDMtMTEpIiBzb2RpcG9kaTpkb2NuYW1lPSJhcGlfbWFuYWdlbWVudC5zdmciIHg9IjBweCIgeT0iMHB4IiB2aWV3Qm94PSIwIDAgMzMuNTIgMjcuNTEiIHN0eWxlPSJlbmFibGUtYmFja2dyb3VuZDpuZXcgMCAwIDMzLjUyIDI3LjUxOyIgeG1sOnNwYWNlPSJwcmVzZXJ2ZSI+JiN4YTs8c29kaXBvZGk6bmFtZWR2aWV3IGJvcmRlcmNvbG9yPSIjNjY2NjY2IiBib3JkZXJvcGFjaXR5PSIxIiBmaXQtbWFyZ2luLWJvdHRvbT0iMCIgZml0LW1hcmdpbi1sZWZ0PSIwIiBmaXQtbWFyZ2luLXJpZ2h0PSIwIiBmaXQtbWFyZ2luLXRvcD0iMCIgZ3JpZHRvbGVyYW5jZT0iMTAiIGd1aWRldG9sZXJhbmNlPSIxMCIgaWQ9Im5hbWVkdmlldzE1Mzk5NyIgaW5rc2NhcGU6Y3VycmVudC1sYXllcj0ic3ZnMTUzOTk1IiBpbmtzY2FwZTpjeD0iMjMuMDM1MDE5IiBpbmtzY2FwZTpjeT0iMTMuMzAzODc5IiBpbmtzY2FwZTpwYWdlb3BhY2l0eT0iMCIgaW5rc2NhcGU6cGFnZXNoYWRvdz0iMiIgaW5rc2NhcGU6d2luZG93LWhlaWdodD0iMTAxNyIgaW5rc2NhcGU6d2luZG93LW1heGltaXplZD0iMSIgaW5rc2NhcGU6d2luZG93LXdpZHRoPSIxOTIwIiBpbmtzY2FwZTp3aW5kb3cteD0iLTgiIGlua3NjYXBlOndpbmRvdy15PSItOCIgaW5rc2NhcGU6em9vbT0iMTYuNzE1MjQxIiBvYmplY3R0b2xlcmFuY2U9IjEwIiBwYWdlY29sb3I9IiNmZmZmZmYiIHNob3dncmlkPSJmYWxzZSI+JiN4YTsJPC9zb2RpcG9kaTpuYW1lZHZpZXc+JiN4YTs8ZyBpZD0iZzE1Mzk5MyI+JiN4YTsJPHRpdGxlIGlkPSJ0aXRsZTE1Mzk4NiI+UGFnZS0xPC90aXRsZT4mI3hhOwk8ZyBpZD0ic2hhcGUzODIzLTEiPiYjeGE7CQk8dGl0bGUgaWQ9InRpdGxlMTUzOTg4Ij5BUEkgTWFuYWdlbWVudDwvdGl0bGU+JiN4YTsJCTxwYXRoIGlkPSJwYXRoMTUzOTkwIiBpbmtzY2FwZTpjb25uZWN0b3ItY3VydmF0dXJlPSIwIiBzdHlsZT0iZmlsbDojM0Y1NzY1OyIgZD0iTTI5LjM1LDExLjUzYzAuMS0wLjQyLDAuMS0wLjYzLDAuMS0xLjI1ICAgIEMyOS40NSw0LjQ2LDI0LjY1LDAsMTguNzksMGMtNC4xNywwLTguMDQsMi4xOC05LjYsNi4wM2MtMC41MywwLTAuOTQtMC4yMS0xLjU3LTAuMjFDMy40NSw1LjgyLDAsOS4xNCwwLDEzLjM5ICAgIGMwLDQuMTUsMy40NSw3LjQ3LDcuNjIsNy40N2gzLjg3YzAuMTEsMC41MywwLjQxLDEuMDUsMC45NCwxLjQ2YzEuMzYsMS40NiwzLjY2LDEuMzUsNSwwYzEuMzYtMS4zNSwxLjM2LTMuNjQsMC00Ljk4ICAgIGMtMS4zNC0xLjQ1LTMuNjQtMS40NS01LDBjLTAuMzIsMC4zMS0wLjUzLDAuOTQtMC43MywxLjM0bC0zLjk3LDAuMTFjLTIuOTIsMC01LjMzLTIuMzgtNS4zMy01LjRjMC0zLDIuMy01LjM5LDUuMzMtNS4zOSAgICBjMC41MiwwLDEuMTUsMC4xLDEuNzgsMC4yMWwxLjE0LDAuMzFsMC4zMS0xLjE0YzEuMTUtMy40Myw0LjI4LTUuNzEsOC4wNS01LjcxYzQuNTksMCw4LjM0LDMuNzMsOC4zNCw4LjMgICAgYzAsMC43My0wLjA5LDEuNDUtMC4zLDIuMThsLTAuNDIsMS42NmwxLjc3LTAuMjFoMC4zMWMxLjM2LDAsMi40MSwxLjE1LDIuNDEsMi4zOWMwLDEuMjUtMC45NCwyLjE4LTIuMDksMi4zOWgtNS45NiAgICBjLTAuMjEtMS42Ny0xLjA0LTMuMTEtMi4xOS00LjI1Yy0xLjQ1LTEuNDYtMy40NS0yLjI5LTUuNTMtMi4yOWMtMS40NiwwLTIuOTIsMC40MS00LjA3LDEuMTVsMS4yNSwxLjk3ICAgIGMwLjk0LTAuNTMsMS44OC0wLjc0LDIuOTItMC43NGMxLjQ3LDAsMi45MywwLjUzLDMuODcsMS42N2MxLjA1LDEuMDMsMS42NywyLjM5LDEuNjcsMy44M2MwLDEuNDYtMC41MiwyLjkyLTEuNjcsMy44NSAgICBjLTEuMDQsMS4xNC0yLjQsMS42Ny0zLjg3LDEuNjdjLTEuMDQsMC0yLjA4LTAuMzItMi45Mi0wLjk1bC0xLjI1LDEuOThjMS4yNSwwLjczLDIuNzEsMS4yNCw0LjA3LDEuMjQgICAgYzIuMDgsMCw0LjA4LTAuNzIsNS41My0yLjI3YzEuMjYtMS4yNSwxLjk4LTIuODEsMi4xOS00LjU3YzAuMzIsMCw2LjA3LTAuMTEsNi4wNy0wLjExaDAuMWMyLjQxLTAuMjEsNC4yOC0yLjI4LDQuMjgtNC43OCAgICBDMzMuMSwxMy44MSwzMS41NCwxMS45NSwyOS4zNSwxMS41M3oiLz4mI3hhOwk8L2c+JiN4YTs8L2c+JiN4YTs8L3N2Zz4=;sketch=0;imageBorder=#FF6666;" vertex="1" parent="1">
          <mxGeometry x="423" y="618" width="57.07" height="47" as="geometry" />
        </mxCell>
        <mxCell id="NH3HatyMuzMGPKfZ8wXx-53" style="edgeStyle=elbowEdgeStyle;rounded=0;orthogonalLoop=1;jettySize=auto;html=1;elbow=vertical;startArrow=classic;startFill=1;strokeColor=#6c8ebf;fillColor=#dae8fc;" edge="1" parent="1" source="NH3HatyMuzMGPKfZ8wXx-23" target="NH3HatyMuzMGPKfZ8wXx-50">
          <mxGeometry relative="1" as="geometry">
            <mxPoint x="343" y="590" as="sourcePoint" />
            <mxPoint x="409.03999999999996" y="590.0100000000002" as="targetPoint" />
            <Array as="points">
              <mxPoint x="353" y="590" />
            </Array>
          </mxGeometry>
        </mxCell>
        <mxCell id="NH3HatyMuzMGPKfZ8wXx-59" value="Kibana" style="shape=image;html=1;verticalAlign=top;verticalLabelPosition=bottom;labelBackgroundColor=#ffffff;imageAspect=0;aspect=fixed;image=https://cdn4.iconfinder.com/data/icons/logos-brands-5/24/kibana-128.png;sketch=0;" vertex="1" parent="1">
          <mxGeometry x="773" y="796.75" width="68" height="68" as="geometry" />
        </mxCell>
        <mxCell id="NH3HatyMuzMGPKfZ8wXx-62" value="2" style="ellipse;whiteSpace=wrap;html=1;aspect=fixed;fillColor=#4D9900;strokeColor=none;labelBackgroundColor=none;" vertex="1" parent="1">
          <mxGeometry x="498" y="494" width="23" height="23" as="geometry" />
        </mxCell>
        <mxCell id="NH3HatyMuzMGPKfZ8wXx-64" value="3" style="ellipse;whiteSpace=wrap;html=1;aspect=fixed;fillColor=#4D9900;strokeColor=none;labelBackgroundColor=none;" vertex="1" parent="1">
          <mxGeometry x="363" y="764" width="23" height="23" as="geometry" />
        </mxCell>
        <mxCell id="NH3HatyMuzMGPKfZ8wXx-66" value="5" style="ellipse;whiteSpace=wrap;html=1;aspect=fixed;fillColor=#4D9900;strokeColor=none;labelBackgroundColor=none;" vertex="1" parent="1">
          <mxGeometry x="480.07" y="363.88" width="23" height="23" as="geometry" />
        </mxCell>
        <mxCell id="NH3HatyMuzMGPKfZ8wXx-67" value="6" style="ellipse;whiteSpace=wrap;html=1;aspect=fixed;fillColor=#4D9900;strokeColor=none;labelBackgroundColor=none;" vertex="1" parent="1">
          <mxGeometry x="480.07" y="778.25" width="23" height="23" as="geometry" />
        </mxCell>
        <mxCell id="NH3HatyMuzMGPKfZ8wXx-68" value="7" style="ellipse;whiteSpace=wrap;html=1;aspect=fixed;fillColor=#4D9900;strokeColor=none;labelBackgroundColor=none;" vertex="1" parent="1">
          <mxGeometry x="680" y="787" width="23" height="23" as="geometry" />
        </mxCell>
        <mxCell id="NH3HatyMuzMGPKfZ8wXx-69" value="8" style="ellipse;whiteSpace=wrap;html=1;aspect=fixed;fillColor=#4D9900;strokeColor=none;labelBackgroundColor=none;" vertex="1" parent="1">
          <mxGeometry x="841" y="787" width="23" height="23" as="geometry" />
        </mxCell>
        <mxCell id="NH3HatyMuzMGPKfZ8wXx-70" value="9" style="ellipse;whiteSpace=wrap;html=1;aspect=fixed;fillColor=#4D9900;strokeColor=none;labelBackgroundColor=none;" vertex="1" parent="1">
          <mxGeometry x="673" y="643.5" width="23" height="23" as="geometry" />
        </mxCell>
        <mxCell id="NH3HatyMuzMGPKfZ8wXx-71" value="10" style="ellipse;whiteSpace=wrap;html=1;aspect=fixed;fillColor=#4D9900;strokeColor=none;labelBackgroundColor=none;" vertex="1" parent="1">
          <mxGeometry x="476.53999999999996" y="241" width="23" height="23" as="geometry" />
        </mxCell>
        <mxCell id="NH3HatyMuzMGPKfZ8wXx-72" value="" style="rounded=0;whiteSpace=wrap;html=1;fillColor=#f5f5f5;strokeColor=none;fontColor=#333333;" vertex="1" parent="1">
          <mxGeometry x="610" y="340" width="118.5" height="292" as="geometry" />
        </mxCell>
        <mxCell id="NH3HatyMuzMGPKfZ8wXx-73" value="4" style="ellipse;whiteSpace=wrap;html=1;aspect=fixed;fillColor=#4D9900;strokeColor=none;labelBackgroundColor=none;" vertex="1" parent="1">
          <mxGeometry x="714.5" y="327" width="23" height="23" as="geometry" />
        </mxCell>
        <mxCell id="NH3HatyMuzMGPKfZ8wXx-74" value="消息队列" style="outlineConnect=0;fontColor=#232F3E;gradientColor=#945DF2;gradientDirection=north;fillColor=#5A30B5;strokeColor=#ffffff;dashed=0;verticalLabelPosition=bottom;verticalAlign=top;align=center;html=1;fontSize=12;fontStyle=0;aspect=fixed;shape=mxgraph.aws4.resourceIcon;resIcon=mxgraph.aws4.managed_streaming_for_kafka;sketch=0;" vertex="1" parent="1">
          <mxGeometry x="638.63" y="363.88" width="61.25" height="61.25" as="geometry" />
        </mxCell>
        <mxCell id="NH3HatyMuzMGPKfZ8wXx-75" value="公众号" style="shape=image;html=1;verticalAlign=top;verticalLabelPosition=bottom;labelBackgroundColor=#ffffff;imageAspect=0;aspect=fixed;image=https://cdn0.iconfinder.com/data/icons/social-media-2092/100/social-58-128.png;sketch=0;" vertex="1" parent="1">
          <mxGeometry x="640.25" y="549" width="58" height="58" as="geometry" />
        </mxCell>
        <mxCell id="NH3HatyMuzMGPKfZ8wXx-76" value="阿里云" style="shape=image;html=1;verticalAlign=top;verticalLabelPosition=bottom;labelBackgroundColor=#ffffff;imageAspect=0;aspect=fixed;image=https://cdn3.iconfinder.com/data/icons/social-networks-34/96/social-20-128.png;sketch=0;" vertex="1" parent="1">
          <mxGeometry x="643.25" y="467.5" width="52" height="52" as="geometry" />
        </mxCell>
      </root>
    </mxGraphModel>
  </diagram>
</mxfile>
